<svg width="216" height="216" viewBox="0 0 216 216" fill="none" xmlns="http://www.w3.org/2000/svg">
<rect width="1" height="216" fill="black" fill-opacity="0.06"/>
<rect x="43" width="1" height="216" fill="black" fill-opacity="0.04"/>
<rect x="86" width="1" height="216" fill="black" fill-opacity="0.04"/>
<rect x="129" width="1" height="216" fill="black" fill-opacity="0.04"/>
<rect x="172" width="1" height="216" fill="black" fill-opacity="0.04"/>
<rect x="215" width="1" height="216" fill="black" fill-opacity="0.04"/>
<rect width="216" height="1" fill="black" fill-opacity="0.06"/>
<rect y="43" width="216" height="1" fill="black" fill-opacity="0.04"/>
<rect y="86" width="216" height="1" fill="black" fill-opacity="0.04"/>
<rect y="129" width="216" height="1" fill="black" fill-opacity="0.04"/>
<rect y="172" width="216" height="1" fill="black" fill-opacity="0.04"/>
<rect y="215" width="216" height="1" fill="black" fill-opacity="0.04"/>
<path d="M105 107.5H111V108.5H105V107.5Z" fill="black" fill-opacity="0.15"/>
<path d="M108.5 105V111H107.5V105H108.5Z" fill="black" fill-opacity="0.15"/>
<path d="M6.5 0V1H1V6.5H0V0H6.5Z" fill="black" fill-opacity="0.15"/>
<path d="M0 209.5H1V215H6.5V216H0V209.5Z" fill="black" fill-opacity="0.15"/>
<path d="M216 6.5H215V1H209.5V0H216V6.5Z" fill="black" fill-opacity="0.15"/>
<path d="M209.5 216V215H215V209.5H216V216H209.5Z" fill="black" fill-opacity="0.15"/>
</svg>