<svg width="32" height="32" viewBox="0 0 32 32" fill="none" xmlns="http://www.w3.org/2000/svg">
<rect width="32" height="32" rx="6" fill="#BA51C5"/>
<path d="M24 20.18V11.82C24.4797 11.6529 24.9091 11.3668 25.2479 10.9884C25.5868 10.61 25.824 10.1517 25.9374 9.6566C26.0507 9.16147 26.0365 8.64566 25.8961 8.15753C25.7556 7.66939 25.4935 7.22491 25.1343 6.86574C24.7752 6.50657 24.3307 6.24448 23.8426 6.10403C23.3544 5.96358 22.8386 5.94937 22.3435 6.06273C21.8484 6.17609 21.3901 6.41331 21.0117 6.75216C20.6333 7.09101 20.3472 7.52038 20.18 8.00004H11.82C11.6529 7.52038 11.3668 7.09101 10.9884 6.75216C10.61 6.41331 10.1517 6.17609 9.6566 6.06273C9.16147 5.94937 8.64566 5.96358 8.15753 6.10403C7.66939 6.24448 7.22491 6.50657 6.86574 6.86574C6.50657 7.22491 6.24448 7.66939 6.10403 8.15753C5.96358 8.64566 5.94937 9.16147 6.06273 9.6566C6.17609 10.1517 6.41331 10.61 6.75216 10.9884C7.09101 11.3668 7.52038 11.6529 8.00004 11.82V20.18C7.52038 20.3472 7.09101 20.6333 6.75216 21.0117C6.41331 21.3901 6.17609 21.8484 6.06273 22.3435C5.94937 22.8386 5.96358 23.3544 6.10403 23.8426C6.24448 24.3307 6.50657 24.7752 6.86574 25.1343C7.22491 25.4935 7.66939 25.7556 8.15753 25.8961C8.64566 26.0365 9.16147 26.0507 9.6566 25.9374C10.1517 25.824 10.61 25.5868 10.9884 25.2479C11.3668 24.9091 11.6529 24.4797 11.82 24H20.18C20.3472 24.4797 20.6333 24.9091 21.0117 25.2479C21.3901 25.5868 21.8484 25.824 22.3435 25.9374C22.8386 26.0507 23.3544 26.0365 23.8426 25.8961C24.3307 25.7556 24.7752 25.4935 25.1343 25.1343C25.4935 24.7752 25.7556 24.3307 25.8961 23.8426C26.0365 23.3544 26.0507 22.8386 25.9374 22.3435C25.824 21.8484 25.5868 21.3901 25.2479 21.0117C24.9091 20.6333 24.4797 20.3472 24 20.18ZM23 8.00004C23.1978 8.00004 23.3912 8.05869 23.5556 8.16858C23.7201 8.27846 23.8482 8.43464 23.9239 8.61736C23.9996 8.80009 24.0194 9.00115 23.9808 9.19514C23.9422 9.38912 23.847 9.5673 23.7072 9.70715C23.5673 9.847 23.3891 9.94225 23.1951 9.98083C23.0012 10.0194 22.8001 9.99961 22.6174 9.92392C22.4346 9.84824 22.2785 9.72006 22.1686 9.55561C22.0587 9.39117 22 9.19783 22 9.00004C22 8.73483 22.1054 8.48047 22.2929 8.29294C22.4805 8.1054 22.7348 8.00004 23 8.00004ZM9.00004 8.00004C9.19783 8.00004 9.39117 8.05869 9.55561 8.16858C9.72006 8.27846 9.84824 8.43464 9.92392 8.61736C9.99961 8.80009 10.0194 9.00115 9.98083 9.19514C9.94225 9.38912 9.847 9.5673 9.70715 9.70715C9.5673 9.847 9.38912 9.94225 9.19514 9.98083C9.00115 10.0194 8.80009 9.99961 8.61736 9.92392C8.43464 9.84824 8.27846 9.72006 8.16858 9.55561C8.05869 9.39117 8.00004 9.19783 8.00004 9.00004C8.00004 8.73483 8.1054 8.48047 8.29294 8.29294C8.48047 8.1054 8.73483 8.00004 9.00004 8.00004ZM9.00004 24C8.80226 24 8.60892 23.9414 8.44447 23.8315C8.28003 23.7216 8.15185 23.5655 8.07617 23.3827C8.00048 23.2 7.98067 22.9989 8.01926 22.805C8.05784 22.611 8.15309 22.4328 8.29294 22.2929C8.43279 22.1531 8.61097 22.0578 8.80495 22.0193C8.99894 21.9807 9.2 22.0005 9.38273 22.0762C9.56545 22.1519 9.72163 22.28 9.83151 22.4445C9.9414 22.6089 10 22.8023 10 23C10 23.2653 9.89469 23.5196 9.70715 23.7072C9.51961 23.8947 9.26526 24 9.00004 24ZM20.18 22H11.82C11.6707 21.5806 11.4299 21.1997 11.1151 20.8849C10.8004 20.5702 10.4194 20.3294 10 20.18V11.82C10.4194 11.6707 10.8004 11.4299 11.1151 11.1151C11.4299 10.8004 11.6707 10.4194 11.82 10H20.18C20.3294 10.4194 20.5702 10.8004 20.8849 11.1151C21.1997 11.4299 21.5806 11.6707 22 11.82V20.18C21.5806 20.3294 21.1997 20.5702 20.8849 20.8849C20.5702 21.1997 20.3294 21.5806 20.18 22ZM23 24C22.8023 24 22.6089 23.9414 22.4445 23.8315C22.28 23.7216 22.1519 23.5655 22.0762 23.3827C22.0005 23.2 21.9807 22.9989 22.0193 22.805C22.0578 22.611 22.1531 22.4328 22.2929 22.2929C22.4328 22.1531 22.611 22.0578 22.805 22.0193C22.9989 21.9807 23.2 22.0005 23.3827 22.0762C23.5655 22.1519 23.7216 22.28 23.8315 22.4445C23.9414 22.6089 24 22.8023 24 23C24 23.2653 23.8947 23.5196 23.7072 23.7072C23.5196 23.8947 23.2653 24 23 24Z" fill="white"/>
</svg>
