<svg width="32" height="32" viewBox="0 0 32 32" fill="none" xmlns="http://www.w3.org/2000/svg">
<rect width="32" height="32" rx="6" fill="#047E9C"/>
<path d="M15 16H7C6.73478 16 6.48043 16.1054 6.29289 16.2929C6.10536 16.4804 6 16.7348 6 17V25C6 25.2652 6.10536 25.5196 6.29289 25.7071C6.48043 25.8946 6.73478 26 7 26H15C15.2652 26 15.5196 25.8946 15.7071 25.7071C15.8946 25.5196 16 25.2652 16 25V17C16 16.7348 15.8946 16.4804 15.7071 16.2929C15.5196 16.1054 15.2652 16 15 16ZM14 24H8V18H14V24ZM25.92 6.62C25.8185 6.37565 25.6243 6.18147 25.38 6.08C25.2598 6.02876 25.1307 6.00158 25 6H19C18.7348 6 18.4804 6.10536 18.2929 6.29289C18.1054 6.48043 18 6.73478 18 7C18 7.26522 18.1054 7.51957 18.2929 7.70711C18.4804 7.89464 18.7348 8 19 8H22.59L17.29 13.29C17.1963 13.383 17.1219 13.4936 17.0711 13.6154C17.0203 13.7373 16.9942 13.868 16.9942 14C16.9942 14.132 17.0203 14.2627 17.0711 14.3846C17.1219 14.5064 17.1963 14.617 17.29 14.71C17.383 14.8037 17.4936 14.8781 17.6154 14.9289C17.7373 14.9797 17.868 15.0058 18 15.0058C18.132 15.0058 18.2627 14.9797 18.3846 14.9289C18.5064 14.8781 18.617 14.8037 18.71 14.71L24 9.41V13C24 13.2652 24.1054 13.5196 24.2929 13.7071C24.4804 13.8946 24.7348 14 25 14C25.2652 14 25.5196 13.8946 25.7071 13.7071C25.8946 13.5196 26 13.2652 26 13V7C25.9984 6.86932 25.9712 6.74022 25.92 6.62Z" fill="white"/>
</svg>
