<?xml version="1.0" encoding="UTF-8"?>
<svg xmlns="http://www.w3.org/2000/svg" xmlns:xlink="http://www.w3.org/1999/xlink" width="4000" height="2001" viewBox="0 0 4000 2001">
<path fill-rule="evenodd" fill="rgb(0%, 0%, 0%)" fill-opacity="1" d="M 476.941406 916.199219 L 3269.238281 916.199219 L 2342.898438 219.101562 C 2335.828125 213.78125 2329.828125 207.550781 2324.949219 200.691406 L 2600.488281 200.691406 L 3569.191406 929.671875 C 3577.359375 934.921875 3584.738281 941.671875 3590.898438 949.859375 C 3602.398438 965.148438 3607.910156 983.148438 3607.851562 1001 C 3607.910156 1018.851562 3602.398438 1036.851562 3590.898438 1052.132812 L 3590.898438 1052.140625 C 3584.738281 1060.332031 3577.351562 1067.085938 3569.171875 1072.34375 L 2600.480469 1801.308594 L 2324.949219 1801.308594 C 2329.828125 1794.445312 2335.828125 1788.214844 2342.898438 1782.894531 L 3269.238281 1085.796875 L 476.941406 1085.796875 C 430.304688 1085.796875 392.148438 1047.640625 392.148438 1001 L 392.148438 1000.988281 C 392.148438 954.359375 430.304688 916.199219 476.941406 916.199219 "/>
<path fill="none" stroke-width="5.0003" stroke-linecap="butt" stroke-linejoin="miter" stroke="rgb(0%, 0%, 0%)" stroke-opacity="1" stroke-miterlimit="2.61313" d="M 4769.414062 10848.007812 L 32692.382812 10848.007812 L 23428.984375 17818.984375 C 23358.28125 17872.1875 23298.28125 17934.492188 23249.492188 18003.085938 L 26004.882812 18003.085938 L 35691.914062 10713.28125 C 35773.59375 10660.78125 35847.382812 10593.28125 35908.984375 10511.40625 C 36023.984375 10358.515625 36079.101562 10178.515625 36078.515625 10000 C 36079.101562 9821.484375 36023.984375 9641.484375 35908.984375 9488.671875 L 35908.984375 9488.59375 C 35847.382812 9406.679688 35773.515625 9339.140625 35691.71875 9286.5625 L 26004.804688 1996.914062 L 23249.492188 1996.914062 C 23298.28125 2065.546875 23358.28125 2127.851562 23428.984375 2181.054688 L 32692.382812 9152.03125 L 4769.414062 9152.03125 C 4303.046875 9152.03125 3921.484375 9533.59375 3921.484375 10000 L 3921.484375 10000.117188 C 3921.484375 10466.40625 4303.046875 10848.007812 4769.414062 10848.007812 Z M 4769.414062 10848.007812 " transform="matrix(0.1, 0, 0, -0.1, 0, 2001)"/>
</svg>
