<svg width="32" height="32" viewBox="0 0 32 32" fill="none" xmlns="http://www.w3.org/2000/svg">
<rect width="32" height="32" rx="6" fill="#15A34A"/>
<path d="M23.8701 12.6C23.7956 12.4287 23.6746 12.2817 23.5209 12.1757C23.3671 12.0696 23.1867 12.0088 23.0001 12H18.4201L19.6901 7.25998C19.7306 7.11165 19.7363 6.956 19.7068 6.80511C19.6773 6.65422 19.6134 6.51217 19.5201 6.38998C19.427 6.26896 19.3073 6.17089 19.1704 6.10329C19.0334 6.03568 18.8828 6.00034 18.7301 5.99998H11.7301C11.5044 5.99224 11.2826 6.06118 11.101 6.19555C10.9195 6.32992 10.7887 6.52181 10.7301 6.73998L8.05012 16.74C8.00967 16.8883 8.00397 17.044 8.03345 17.1948C8.06294 17.3457 8.12681 17.4878 8.22012 17.61C8.31431 17.7323 8.43555 17.8312 8.57434 17.8989C8.71314 17.9665 8.86572 18.0011 9.02012 18H12.8901L11.0801 24.74C11.0208 24.9573 11.0366 25.1883 11.125 25.3955C11.2134 25.6028 11.3692 25.7741 11.5671 25.8817C11.765 25.9893 11.9934 26.027 12.2154 25.9886C12.4374 25.9501 12.6399 25.8379 12.7901 25.67L23.6901 13.67C23.8199 13.5279 23.9059 13.3513 23.9379 13.1615C23.9698 12.9717 23.9463 12.7767 23.8701 12.6ZM14.0801 21.28L15.1501 17.28C15.1906 17.1317 15.1963 16.976 15.1668 16.8251C15.1373 16.6742 15.0734 16.5322 14.9801 16.41C14.887 16.289 14.7673 16.1909 14.6304 16.1233C14.4934 16.0557 14.3428 16.0203 14.1901 16.02H10.3501L12.4901 7.99998H17.4201L16.1501 12.74C16.1093 12.891 16.1046 13.0495 16.1362 13.2028C16.1679 13.356 16.235 13.4997 16.3323 13.6222C16.4295 13.7448 16.5542 13.8428 16.6963 13.9084C16.8383 13.974 16.9938 14.0054 17.1501 14H20.7201L14.0801 21.28Z" fill="white"/>
</svg>
