<svg width="310" height="9" viewBox="0 0 310 9" fill="none" xmlns="http://www.w3.org/2000/svg">
<defs>
<radialGradient id="metadevTextGradient" cx="0" cy="0" r="1" gradientUnits="userSpaceOnUse" gradientTransform="translate(155 4.5) scale(170 5)">
<stop stop-color="#088CC9"/>
<stop offset="1" stop-color="#143882"/>
</radialGradient>
</defs>
<path d="M3.6 0.120019H8.16L11.76 8.52002H8.52L7.908 7.08002H3.852L3.24 8.52002H0L3.6 0.120019ZM5.88 2.36402L4.788 4.92002H6.972L5.88 2.36402ZM25.5698 2.76002V3.96002H27.6338C28.1778 3.96002 28.4498 3.76002 28.4498 3.36002C28.4498 2.96002 28.1778 2.76002 27.6338 2.76002H25.5698ZM25.5698 6.60002V8.52002H22.4498V0.120019H27.5258C28.8458 0.120019 29.8538 0.408019 30.5498 0.984019C31.2298 1.53602 31.5698 2.32802 31.5698 3.36002C31.5698 4.39202 31.2298 5.18402 30.5498 5.73602C29.8538 6.31202 28.8458 6.60002 27.5258 6.60002H25.5698ZM38.4108 2.76002V3.96002H40.9548C41.4988 3.96002 41.7708 3.76002 41.7708 3.36002C41.7708 2.96002 41.4988 2.76002 40.9548 2.76002H38.4108ZM38.4108 6.60002V8.52002H35.2908V0.120019H40.8468C42.1668 0.120019 43.1748 0.408019 43.8708 0.984019C44.5508 1.53602 44.8908 2.32802 44.8908 3.36002C44.8908 4.66402 44.3548 5.58402 43.2828 6.12002L44.8908 8.52002H41.6508L40.3668 6.60002H38.4108ZM51.3736 4.32002C51.3736 5.44002 52.1336 6.00002 53.6536 6.00002C55.1736 6.00002 55.9336 5.44002 55.9336 4.32002C55.9336 3.20002 55.1736 2.64002 53.6536 2.64002C52.1336 2.64002 51.3736 3.20002 51.3736 4.32002ZM49.6096 1.14002C50.5376 0.380019 51.8856 1.90735e-05 53.6536 1.90735e-05C55.4216 1.90735e-05 56.7696 0.380019 57.6976 1.14002C58.6016 1.88402 59.0536 2.94402 59.0536 4.32002C59.0536 5.69602 58.6016 6.75602 57.6976 7.50002C56.7696 8.26002 55.4216 8.64002 53.6536 8.64002C51.8856 8.64002 50.5376 8.26002 49.6096 7.50002C48.7056 6.75602 48.2536 5.69602 48.2536 4.32002C48.2536 2.94402 48.7056 1.88402 49.6096 1.14002ZM72.1927 0.120019V4.32002C72.1927 5.69602 71.7727 6.75602 70.9327 7.50002C70.0607 8.26002 68.8007 8.64002 67.1527 8.64002C65.5047 8.64002 64.2447 8.26002 63.3727 7.50002C62.5327 6.75602 62.1127 5.69602 62.1127 4.32002H65.2327C65.2327 5.44002 65.8727 6.00002 67.1527 6.00002C68.4327 6.00002 69.0727 5.44002 69.0727 4.32002V2.76002H65.7127V0.120019H72.1927ZM76.087 0.120019H84.967V2.52002H79.207V3.24002H84.847V5.40002H79.207V6.12002H84.967V8.52002H76.087V0.120019ZM96.0016 4.80002H99.1576C99.0456 6.02402 98.5456 6.96402 97.6576 7.62002C96.7376 8.30002 95.4496 8.64002 93.7936 8.64002C92.0256 8.64002 90.6776 8.26002 89.7496 7.50002C88.8456 6.75602 88.3936 5.69602 88.3936 4.32002C88.3936 2.94402 88.8456 1.88402 89.7496 1.14002C90.6776 0.380019 92.0256 1.90735e-05 93.7936 1.90735e-05C95.4496 1.90735e-05 96.7376 0.340019 97.6576 1.02002C98.5456 1.67602 99.0456 2.61602 99.1576 3.84002H96.0016C95.7776 3.04002 95.0416 2.64002 93.7936 2.64002C92.2736 2.64002 91.5136 3.20002 91.5136 4.32002C91.5136 5.44002 92.2736 6.00002 93.7936 6.00002C95.0416 6.00002 95.7776 5.60002 96.0016 4.80002ZM102.226 0.120019H111.586V2.76002H108.466V8.52002H105.346V2.76002H102.226V0.120019ZM125.508 5.40002V6.24002H128.304C128.68 6.24002 128.868 6.10002 128.868 5.82002C128.868 5.54002 128.68 5.40002 128.304 5.40002H125.508ZM125.508 2.40002V3.24002H127.944C128.32 3.24002 128.508 3.10002 128.508 2.82002C128.508 2.54002 128.32 2.40002 127.944 2.40002H125.508ZM129.216 8.52002H122.388V0.120019H128.928C129.816 0.120019 130.492 0.312019 130.956 0.696019C131.404 1.06402 131.628 1.59202 131.628 2.28002C131.628 3.24002 131.192 3.88402 130.32 4.21202C131.432 4.49202 131.988 5.18802 131.988 6.30002C131.988 7.00402 131.756 7.54802 131.292 7.93202C130.812 8.32402 130.12 8.52002 129.216 8.52002ZM142.906 0.120019H146.386L142.126 5.79602V8.52002H139.006V5.79602L134.746 0.120019H138.226L140.566 3.24002L142.906 0.120019ZM165.947 0.120019H169.067V8.52002H165.947V4.68002L163.067 8.28002L160.187 4.68002V8.52002H157.067V0.120019H160.187L163.067 3.72002L165.947 0.120019ZM173.143 0.120019H182.023V2.52002H176.263V3.24002H181.903V5.40002H176.263V6.12002H182.023V8.52002H173.143V0.120019ZM185.328 0.120019H194.688V2.76002H191.568V8.52002H188.448V2.76002H185.328V0.120019ZM200.09 0.120019H204.65L208.25 8.52002H205.01L204.398 7.08002H200.342L199.73 8.52002H196.49L200.09 0.120019ZM202.37 2.36402L201.278 4.92002H203.462L202.37 2.36402ZM214.856 5.88002H216.692C218.028 5.88002 218.696 5.36002 218.696 4.32002C218.696 3.28002 218.028 2.76002 216.692 2.76002H214.856V5.88002ZM211.736 0.120019H216.692C218.396 0.120019 219.684 0.492019 220.556 1.23602C221.396 1.94802 221.816 2.97602 221.816 4.32002C221.816 5.66402 221.396 6.69202 220.556 7.40402C219.684 8.14802 218.396 8.52002 216.692 8.52002H211.736V0.120019ZM225.596 0.120019H234.476V2.52002H228.716V3.24002H234.356V5.40002H228.716V6.12002H234.476V8.52002H225.596V0.120019ZM246.181 0.120019H249.421L245.821 8.52002H241.261L237.661 0.120019H240.901L243.541 6.27602L246.181 0.120019ZM260.111 0.120019H263.231V5.88002H268.031V8.52002H260.111V0.120019ZM274.862 0.120019H279.422L283.022 8.52002H279.782L279.17 7.08002H275.114L274.502 8.52002H271.262L274.862 0.120019ZM277.142 2.36402L276.05 4.92002H278.234L277.142 2.36402ZM289.628 5.40002V6.24002H292.424C292.8 6.24002 292.988 6.10002 292.988 5.82002C292.988 5.54002 292.8 5.40002 292.424 5.40002H289.628ZM289.628 2.40002V3.24002H292.064C292.44 3.24002 292.628 3.10002 292.628 2.82002C292.628 2.54002 292.44 2.40002 292.064 2.40002H289.628ZM293.336 8.52002H286.508V0.120019H293.048C293.936 0.120019 294.612 0.312019 295.076 0.696019C295.524 1.06402 295.748 1.59202 295.748 2.28002C295.748 3.24002 295.312 3.88402 294.44 4.21202C295.552 4.49202 296.108 5.18802 296.108 6.30002C296.108 7.00402 295.876 7.54802 295.412 7.93202C294.932 8.32402 294.24 8.52002 293.336 8.52002ZM306.275 5.52002C306.011 5.42402 305.463 5.36402 304.631 5.34002C302.543 5.27602 301.135 5.02802 300.407 4.59602C299.783 4.23602 299.471 3.58802 299.471 2.65202C299.471 1.75602 299.835 1.10002 300.563 0.684019C301.371 0.228019 302.727 1.90735e-05 304.631 1.90735e-05C306.527 1.90735e-05 307.859 0.264019 308.627 0.792019C309.315 1.25602 309.659 2.01202 309.659 3.06002H306.539C306.539 2.78802 306.411 2.61202 306.155 2.53202C305.907 2.44402 305.399 2.40002 304.631 2.40002C303.791 2.40002 303.247 2.43202 302.999 2.49602C302.823 2.54402 302.735 2.64002 302.735 2.78402C302.735 2.92002 302.823 3.01202 302.999 3.06002C303.223 3.10802 303.767 3.14802 304.631 3.18002C306.711 3.26002 308.115 3.51602 308.843 3.94802C309.475 4.32402 309.791 4.98002 309.791 5.91602C309.791 6.82002 309.427 7.48802 308.699 7.92002C307.883 8.40002 306.527 8.64002 304.631 8.64002C302.727 8.64002 301.371 8.37602 300.563 7.84802C299.835 7.37602 299.471 6.62002 299.471 5.58002H302.591C302.591 5.85202 302.715 6.02802 302.963 6.10802C303.211 6.19602 303.767 6.24002 304.631 6.24002C305.471 6.24002 306.015 6.20802 306.263 6.14402C306.447 6.09602 306.539 6.00002 306.539 5.85602C306.539 5.69602 306.451 5.58402 306.275 5.52002Z" fill="url(#metadevTextGradient)"/>
</svg>