<svg width="132" height="20" viewBox="0 0 132 20" fill="none" xmlns="http://www.w3.org/2000/svg">
<path fill-rule="evenodd" clip-rule="evenodd" d="M26.3734 3.2205H35.7718C36.68 3.2205 37.4169 2.50061 37.4169 1.61325V1.60743C37.4169 0.720066 36.68 0.000172741 35.7718 0.000172741H26.3734C25.4645 0.000172741 24.7282 0.720066 24.7282 1.60743V1.61325C24.7282 2.50061 25.4645 3.2205 26.3734 3.2205ZM17.9385 0C18.8849 0 19.6515 0.749551 19.6515 1.67413V18.3259C19.6515 19.2504 18.8849 20 17.9385 20H17.8956C16.9492 20 16.182 19.2504 16.182 18.3259V3.39013H12.5304C11.9828 3.39013 11.5394 3.82334 11.5394 4.35832V18.3259C11.5394 19.2504 10.7721 20 9.82574 20L9.74507 19.9982C8.83617 19.957 8.11272 19.224 8.11272 18.3259V4.35832C8.11272 3.82334 7.6687 3.39013 7.1217 3.39013H3.46948V18.3259C3.46948 19.2504 2.70285 20 1.75646 20H1.71362C0.767232 20 0 19.2504 0 18.3259V1.67413C0 0.749551 0.767232 0 1.71362 0H17.9385ZM116.267 0.000287902C117.011 0.000287902 117.679 0.443973 117.952 1.11967L117.957 1.13333C118.113 1.5765 122.018 12.6573 122.083 12.806C122.281 13.2631 122.734 13.5829 123.273 13.5829C123.812 13.5829 124.104 13.2625 124.302 12.806C124.302 12.8045 124.303 12.8018 124.305 12.7981L124.318 12.7622C124.444 12.4203 125.237 10.1917 126.095 7.77442L126.218 7.42798L126.341 7.08008C126.362 7.02204 126.382 6.96398 126.403 6.90593L126.527 6.55789C127.513 3.77724 128.455 1.11967 128.455 1.11967C128.709 0.291621 129.348 0.000287902 130.186 0.000287902C131.489 0.000287902 132.365 1.30226 131.85 2.47049L125.188 18.9303C124.902 19.5793 124.247 19.9997 123.524 19.9997H122.752C122.031 19.9997 121.379 19.5822 121.09 18.9356L114.525 2.47631C114.004 1.3075 114.882 0.000287902 116.186 0.000287902H116.267ZM84.3785 0.00035124C85.7278 0.00035124 87.0289 0.20271 88.2819 0.607432C89.5348 1.01274 90.6431 1.62912 91.6073 2.45775C92.5709 3.28639 93.3417 4.32669 93.9203 5.57923C94.4988 6.83177 94.7875 8.30529 94.7875 9.99977C94.7875 11.714 94.4554 13.1968 93.7905 14.4488C93.1251 15.7013 92.2674 16.737 91.2168 17.5563C90.1657 18.3756 88.9997 18.988 87.7182 19.3927C86.4361 19.7974 85.1784 19.9998 83.9445 19.9998H81.5953C80.6524 19.9998 79.8531 19.4316 79.7608 19.1944L76.5568 12.3258C76.3973 12.1019 76.3116 11.2541 76.3116 10.9808V1.33547C76.3116 0.598128 76.9234 0.00035124 77.6788 0.00035124H84.3785ZM64.8445 0.000230321C65.5659 0.000230321 66.2182 0.417748 66.5057 1.06437L73.8351 17.5236C74.3559 18.6924 73.4786 19.9996 72.1739 19.9996H72.0929C71.3495 19.9996 70.6811 19.556 70.4079 18.8803C70.4079 18.8803 65.7599 7.3457 65.6938 7.19393C65.4962 6.73688 65.0337 6.41705 64.4945 6.41705C63.9552 6.41705 63.4922 6.73746 63.2945 7.19393C63.2635 7.26526 62.2127 9.85106 61.1075 12.572L60.9662 12.9199C59.7639 15.8801 58.5459 18.8803 58.5459 18.8803C58.2918 19.7083 57.6531 19.9996 56.8151 19.9996C55.5128 19.9996 54.636 18.6977 55.1509 17.5295L62.4089 1.06961C62.6952 0.420656 63.3493 0.000230321 64.0731 0.000230321H64.8445ZM35.7414 7.31715C36.6527 7.31424 37.3925 8.03472 37.3925 8.92441L37.3906 9.0023C37.3491 9.85404 36.6295 10.5317 35.7474 10.5317H29.3173C28.7947 10.5317 28.3715 10.9457 28.3715 11.4562V15.8553C28.3715 16.3652 28.7947 16.7793 29.3173 16.7793H35.7474C36.6562 16.7793 37.3925 17.4992 37.3925 18.3865V18.3923C37.3925 19.2803 36.6562 19.9996 35.7474 19.9996H26.3734C25.4645 19.9996 24.7282 19.2803 24.7282 18.3923V8.95755C24.7282 8.07193 25.4609 7.3532 26.3674 7.35029L35.7414 7.31715ZM109.049 7.31715C109.96 7.31424 110.7 8.03472 110.7 8.92441L110.698 9.0023C110.656 9.85404 109.937 10.5317 109.055 10.5317H102.625C102.102 10.5317 101.679 10.9457 101.679 11.4562V15.8553C101.679 16.3652 102.102 16.7793 102.625 16.7793H109.055C109.964 16.7793 110.7 17.4992 110.7 18.3865V18.3923C110.7 19.2803 109.964 19.9996 109.055 19.9996H99.6807C98.7718 19.9996 98.0355 19.2803 98.0355 18.3923V8.95755C98.0355 8.07193 98.7682 7.3532 99.6747 7.35029L109.049 7.31715ZM54.6423 0.000172741C55.5256 0.000172741 56.2468 0.67944 56.2885 1.53234L56.2904 1.61034C56.2904 2.49945 55.5523 3.2205 54.6423 3.2205H50.896C50.4097 3.2205 50.0163 3.60546 50.0163 4.07996V18.3894C50.0163 19.2791 49.2782 19.9996 48.3681 19.9996H48.0211C47.1111 19.9996 46.373 19.2791 46.373 18.3894V4.07996C46.373 3.60546 45.979 3.2205 45.4933 3.2205H41.7464C40.8631 3.2205 40.1418 2.54124 40.1002 1.68834L40.0983 1.61034C40.0983 0.721229 40.8363 0.000172741 41.7464 0.000172741H54.6423ZM83.2797 3.22068H81.3221C80.5667 3.22068 79.9549 3.81846 79.9549 4.5558V12.3153C79.9549 13.0619 81.4393 15.795 81.7012 16.1881C81.9631 16.5817 82.0923 16.7794 82.8363 16.7794C83.5803 16.7794 84.8844 16.6521 85.8968 16.398C86.9087 16.1439 87.7902 15.7484 88.5426 15.2117C89.2937 14.675 89.8865 13.9784 90.3204 13.1212C90.7544 12.2647 90.971 11.2244 90.971 9.99977C90.971 8.79491 90.7782 7.75926 90.3925 6.89283C90.0068 6.0264 89.4717 5.32511 88.7878 4.78839C88.1033 4.25167 87.2938 3.85625 86.3593 3.60156C85.4242 3.34744 84.3975 3.22068 83.2797 3.22068ZM109.079 0.000172741C109.987 0.000172741 110.724 0.720066 110.724 1.60743V1.61325C110.724 2.50061 109.987 3.2205 109.079 3.2205H99.6807C98.7718 3.2205 98.0355 2.50061 98.0355 1.61325V1.60743C98.0355 0.720066 98.7718 0.000172741 99.6807 0.000172741H109.079Z" fill="url(#paint0_radial_116_6261)"/>
<defs>
<radialGradient id="paint0_radial_116_6261" cx="0" cy="0" r="1" gradientUnits="userSpaceOnUse" gradientTransform="translate(66.1891 -2.26414) rotate(90) scale(22.2641 32.7482)">
<stop stop-color="#088CC9"/>
<stop offset="1" stop-color="#143882"/>
</radialGradient>
</defs>
</svg>
