<svg width="40" height="40" viewBox="0 0 40 40" fill="none" xmlns="http://www.w3.org/2000/svg">
<path d="M35.4949 33.8977C35.4949 33.3035 35.3875 32.7136 35.1782 32.1545L33.2311 26.9714L32.7324 26.0935C31.6653 26.5808 30.7445 26.9998 28.7797 26.9998C26.8155 26.9998 25.8941 26.5808 24.8286 26.0945C23.7015 25.5818 22.4241 24.9998 19.9979 24.9998C17.5728 24.9998 16.2964 25.5818 15.1708 26.0955C14.1057 26.5808 13.1859 26.9998 11.2232 26.9998C9.26095 26.9998 8.3396 26.5808 7.21401 26.0667L7.04759 26.2458L4.82819 32.1545C4.61739 32.7136 4.51099 33.3044 4.51099 33.8977C4.51099 36.7156 6.87008 38.9998 9.78037 38.9998H30.227C33.1363 38.9998 35.4949 36.7156 35.4949 33.8977Z" fill="#15A34A"/>
<path d="M10.7079 6H11.7407V10.8237L3.8575 31.813C3.60535 32.4829 3.47827 33.1851 3.47827 33.8979C3.47827 37.2627 6.30535 40 9.78046 40C9.78046 40 29.3628 40 31.2836 40C33.2045 40 34.8777 38 34.8777 38C35.8763 36.939 36.496 35.54 36.5218 34L36.2005 32C36.1798 31.939 36.1718 31.874 36.1491 31.813L35.4673 30L34.7164 28L33.9458 25.9487L33.2045 23.9741L31.2836 18.8589L30.5347 16.8647L28.2654 10.8237V6H29.2982C31.0068 6 32.3966 4.65381 32.3966 3C32.3966 1.3457 31.0068 0 29.2982 0H10.7079C8.99981 0 7.60946 1.3457 7.60946 3C7.60946 4.65381 8.99981 6 10.7079 6ZM29.2982 38H9.78046C7.44456 38 5.54387 36.1597 5.54387 33.8979C5.54387 33.418 5.6296 32.9458 5.79803 32.4971L11.2429 18H17.9374V16H11.9948L12.7457 14H15.8718V12H13.4966L13.8063 11.1758V10H17.9374V8H13.8063V6H15.8718V4H10.7079C10.138 4 9.67506 3.55078 9.67506 3C9.67506 2.44873 10.138 2 10.7079 2H29.2982C29.8686 2 30.331 2.44873 30.331 3C30.331 3.55078 29.8686 4 29.2982 4H17.9374V6H26.1998V11.1758L34.2085 32.4971C34.3765 32.9458 34.4622 33.418 34.4622 33.8979C34.4622 36.1597 32.562 38 30.2261 38H29.2982Z" fill="black"/>
</svg>
