<svg width="212" height="40" viewBox="0 0 212 40" fill="none" xmlns="http://www.w3.org/2000/svg">
<rect width="212" height="40" rx="8" fill="white"/>
<rect x="4" y="4" width="32" height="32" rx="6" fill="#BA51C5"/>
<path d="M28 24.18V15.82C28.4797 15.6529 28.9091 15.3668 29.2479 14.9884C29.5868 14.61 29.824 14.1517 29.9374 13.6566C30.0507 13.1615 30.0365 12.6457 29.8961 12.1575C29.7556 11.6694 29.4935 11.2249 29.1343 10.8657C28.7752 10.5066 28.3307 10.2445 27.8426 10.104C27.3544 9.96358 26.8386 9.94937 26.3435 10.0627C25.8484 10.1761 25.3901 10.4133 25.0117 10.7522C24.6333 11.091 24.3472 11.5204 24.18 12H15.82C15.6529 11.5204 15.3668 11.091 14.9884 10.7522C14.61 10.4133 14.1517 10.1761 13.6566 10.0627C13.1615 9.94937 12.6457 9.96358 12.1575 10.104C11.6694 10.2445 11.2249 10.5066 10.8657 10.8657C10.5066 11.2249 10.2445 11.6694 10.104 12.1575C9.96358 12.6457 9.94937 13.1615 10.0627 13.6566C10.1761 14.1517 10.4133 14.61 10.7522 14.9884C11.091 15.3668 11.5204 15.6529 12 15.82V24.18C11.5204 24.3472 11.091 24.6333 10.7522 25.0117C10.4133 25.3901 10.1761 25.8484 10.0627 26.3435C9.94937 26.8386 9.96358 27.3544 10.104 27.8426C10.2445 28.3307 10.5066 28.7752 10.8657 29.1343C11.2249 29.4935 11.6694 29.7556 12.1575 29.8961C12.6457 30.0365 13.1615 30.0507 13.6566 29.9374C14.1517 29.824 14.61 29.5868 14.9884 29.2479C15.3668 28.9091 15.6529 28.4797 15.82 28H24.18C24.3472 28.4797 24.6333 28.9091 25.0117 29.2479C25.3901 29.5868 25.8484 29.824 26.3435 29.9374C26.8386 30.0507 27.3544 30.0365 27.8426 29.8961C28.3307 29.7556 28.7752 29.4935 29.1343 29.1343C29.4935 28.7752 29.7556 28.3307 29.8961 27.8426C30.0365 27.3544 30.0507 26.8386 29.9374 26.3435C29.824 25.8484 29.5868 25.3901 29.2479 25.0117C28.9091 24.6333 28.4797 24.3472 28 24.18ZM27 12C27.1978 12 27.3912 12.0587 27.5556 12.1686C27.7201 12.2785 27.8482 12.4346 27.9239 12.6174C27.9996 12.8001 28.0194 13.0012 27.9808 13.1951C27.9422 13.3891 27.847 13.5673 27.7072 13.7072C27.5673 13.847 27.3891 13.9422 27.1951 13.9808C27.0012 14.0194 26.8001 13.9996 26.6174 13.9239C26.4346 13.8482 26.2785 13.7201 26.1686 13.5556C26.0587 13.3912 26 13.1978 26 13C26 12.7348 26.1054 12.4805 26.2929 12.2929C26.4805 12.1054 26.7348 12 27 12ZM13 12C13.1978 12 13.3912 12.0587 13.5556 12.1686C13.7201 12.2785 13.8482 12.4346 13.9239 12.6174C13.9996 12.8001 14.0194 13.0012 13.9808 13.1951C13.9422 13.3891 13.847 13.5673 13.7072 13.7072C13.5673 13.847 13.3891 13.9422 13.1951 13.9808C13.0012 14.0194 12.8001 13.9996 12.6174 13.9239C12.4346 13.8482 12.2785 13.7201 12.1686 13.5556C12.0587 13.3912 12 13.1978 12 13C12 12.7348 12.1054 12.4805 12.2929 12.2929C12.4805 12.1054 12.7348 12 13 12ZM13 28C12.8023 28 12.6089 27.9414 12.4445 27.8315C12.28 27.7216 12.1519 27.5655 12.0762 27.3827C12.0005 27.2 11.9807 26.9989 12.0193 26.805C12.0578 26.611 12.1531 26.4328 12.2929 26.2929C12.4328 26.1531 12.611 26.0578 12.805 26.0193C12.9989 25.9807 13.2 26.0005 13.3827 26.0762C13.5655 26.1519 13.7216 26.28 13.8315 26.4445C13.9414 26.6089 14 26.8023 14 27C14 27.2653 13.8947 27.5196 13.7072 27.7072C13.5196 27.8947 13.2653 28 13 28ZM24.18 26H15.82C15.6707 25.5806 15.4299 25.1997 15.1151 24.8849C14.8004 24.5702 14.4194 24.3294 14 24.18V15.82C14.4194 15.6707 14.8004 15.4299 15.1151 15.1151C15.4299 14.8004 15.6707 14.4194 15.82 14H24.18C24.3294 14.4194 24.5702 14.8004 24.8849 15.1151C25.1997 15.4299 25.5806 15.6707 26 15.82V24.18C25.5806 24.3294 25.1997 24.5702 24.8849 24.8849C24.5702 25.1997 24.3294 25.5806 24.18 26ZM27 28C26.8023 28 26.6089 27.9414 26.4445 27.8315C26.28 27.7216 26.1519 27.5655 26.0762 27.3827C26.0005 27.2 25.9807 26.9989 26.0193 26.805C26.0578 26.611 26.1531 26.4328 26.2929 26.2929C26.4328 26.1531 26.611 26.0578 26.805 26.0193C26.9989 25.9807 27.2 26.0005 27.3827 26.0762C27.5655 26.1519 27.7216 26.28 27.8315 26.4445C27.9414 26.6089 28 26.8023 28 27C28 27.2653 27.8947 27.5196 27.7072 27.7072C27.5196 27.8947 27.2653 28 27 28Z" fill="white"/>
<path d="M54.188 14.798V15.806H50.324V19.11H53.768V20.104H50.324V23.492H54.188V24.5H49.05V14.798H54.188ZM55.5164 16.814H56.8744L59.2264 23.31L61.5924 16.814H62.9644L59.9544 24.5H58.5124L55.5164 16.814ZM67.6777 24.626C66.5763 24.626 65.6803 24.262 64.9897 23.534C64.299 22.806 63.9537 21.8447 63.9537 20.65C63.9537 19.4553 64.3037 18.4987 65.0037 17.78C65.7037 17.052 66.609 16.688 67.7197 16.688C68.8397 16.688 69.7357 17.0333 70.4077 17.724C71.089 18.4053 71.4297 19.278 71.4297 20.342C71.4297 20.6127 71.411 20.8647 71.3737 21.098H65.2557C65.293 21.8633 65.531 22.47 65.9697 22.918C66.4177 23.3567 66.987 23.576 67.6777 23.576C68.2003 23.576 68.639 23.4593 68.9937 23.226C69.3577 22.9927 69.6237 22.6847 69.7917 22.302H71.1637C70.921 22.974 70.501 23.5293 69.9037 23.968C69.3157 24.4067 68.5737 24.626 67.6777 24.626ZM70.0997 20.174C70.0903 19.4367 69.857 18.8487 69.3997 18.41C68.9423 17.962 68.373 17.738 67.6917 17.738C67.0197 17.738 66.4597 17.9573 66.0117 18.396C65.5637 18.8253 65.3163 19.418 65.2697 20.174H70.0997ZM74.5703 16.814V18.06C75.0929 17.1453 75.9283 16.688 77.0763 16.688C77.9256 16.688 78.6349 16.9727 79.2043 17.542C79.7736 18.102 80.0583 18.9047 80.0583 19.95V24.5H78.7983V20.16C78.7983 19.3853 78.6116 18.7973 78.2383 18.396C77.8649 17.9947 77.3469 17.794 76.6843 17.794C76.0309 17.794 75.5129 17.9947 75.1303 18.396C74.7569 18.7973 74.5703 19.3853 74.5703 20.16V24.5H73.2963V16.814H74.5703ZM84.8873 23.464H85.9373V24.5H84.6493C83.3146 24.5 82.6473 23.842 82.6473 22.526V17.85H81.6533V16.814H82.6473V14.91H83.9353V16.814H85.9233V17.85H83.9353V22.526C83.9353 22.8713 84.0053 23.114 84.1453 23.254C84.2853 23.394 84.5326 23.464 84.8873 23.464Z" fill="black"/>
</svg>
