<svg width="108" height="40" viewBox="0 0 108 40" fill="none" xmlns="http://www.w3.org/2000/svg">
  <rect width="108" height="40" rx="8" fill="white"></rect>
  <rect x="4" y="4" width="32" height="32" rx="6" fill="#6D28D9"></rect>
  <path d="M10 20h3.5l2.5-7 4 14 2.5-7H30" stroke="white" stroke-width="1.8" stroke-linecap="round" stroke-linejoin="round" fill="none"></path>
  <path d="M54.780 16.655L50.520 16.655L50.520 20.150L54.330 20.150L54.330 21.275L50.520 21.275L50.520 24.875L54.780 24.875L54.780 26L49.155 26L49.155 15.530L54.780 15.530L54.780 16.655Z M57.445 17.780L60.010 24.740L62.560 17.780L64.015 17.780L60.790 26L59.200 26L55.975 17.780L57.445 17.780Z M72.965 21.575Q72.965 21.965 72.920 22.400L72.920 22.400L66.350 22.400Q66.425 23.615 67.183 24.297Q67.940 24.980 69.020 24.980L69.020 24.980Q69.905 24.980 70.498 24.567Q71.090 24.155 71.330 23.465L71.330 23.465L72.800 23.465Q72.470 24.650 71.480 25.392Q70.490 26.135 69.020 26.135L69.020 26.135Q67.850 26.135 66.928 25.610Q66.005 25.085 65.480 24.117Q64.955 23.150 64.955 21.875L64.955 21.875Q64.955 20.600 65.465 19.640Q65.975 18.680 66.898 18.163Q67.820 17.645 69.020 17.645L69.020 17.645Q70.190 17.645 71.090 18.155Q71.990 18.665 72.478 19.558Q72.965 20.450 72.965 21.575L72.965 21.575ZM71.555 21.290Q71.555 20.510 71.210 19.947Q70.865 19.385 70.273 19.093Q69.680 18.800 68.960 18.800L68.960 18.800Q67.925 18.800 67.198 19.460Q66.470 20.120 66.365 21.290L66.365 21.290L71.555 21.290Z M78.870 17.630Q80.370 17.630 81.300 18.538Q82.230 19.445 82.230 21.155L82.230 21.155L82.230 26L80.880 26L80.880 21.350Q80.880 20.120 80.265 19.468Q79.650 18.815 78.585 18.815L78.585 18.815Q77.505 18.815 76.868 19.490Q76.230 20.165 76.230 21.455L76.230 21.455L76.230 26L74.865 26L74.865 17.780L76.230 17.780L76.230 18.950Q76.635 18.320 77.333 17.975Q78.030 17.630 78.870 17.630L78.870 17.630Z M88.375 18.905L86.230 18.905L86.230 23.750Q86.230 24.350 86.485 24.598Q86.740 24.845 87.370 24.845L87.370 24.845L88.375 24.845L88.375 26L87.145 26Q86.005 26 85.435 25.475Q84.865 24.950 84.865 23.750L84.865 23.750L84.865 18.905L83.800 18.905L83.800 17.780L84.865 17.780L84.865 15.710L86.230 15.710L86.230 17.780L88.375 17.780L88.375 18.905Z" fill="#000"></path>
</svg>