<svg width="212" height="40" viewBox="0 0 212 40" fill="none" xmlns="http://www.w3.org/2000/svg">
<rect width="212" height="40" rx="8" fill="white"/>
<rect x="4" y="4" width="32" height="32" rx="6" fill="#B8475A"/>
<path d="M12 30V23" stroke="white" stroke-width="2" stroke-linecap="round" stroke-linejoin="round"/>
<path d="M12 23C12 23 13 22 16 22C19 22 21 24 24 24C27 24 28 23 28 23V11C28 11 27 12 24 12C21 12 19 10 16 10C13 10 12 11 12 11V23Z" stroke="white" stroke-width="2" stroke-linecap="round" stroke-linejoin="round"/>
<path d="M54.188 14.798V15.806H50.324V19.11H53.768V20.104H50.324V23.492H54.188V24.5H49.05V14.798H54.188ZM57.6724 16.814V18.06C58.195 17.1453 59.0304 16.688 60.1784 16.688C61.0277 16.688 61.737 16.9727 62.3064 17.542C62.8757 18.102 63.1604 18.9047 63.1604 19.95V24.5H61.9004V20.16C61.9004 19.3853 61.7137 18.7973 61.3404 18.396C60.967 17.9947 60.449 17.794 59.7864 17.794C59.133 17.794 58.615 17.9947 58.2324 18.396C57.859 18.7973 57.6724 19.3853 57.6724 20.16V24.5H56.3984V16.814H57.6724ZM70.6914 22.75C71.2047 22.2273 71.4614 21.532 71.4614 20.664C71.4614 19.796 71.2047 19.1007 70.6914 18.578C70.1874 18.0553 69.576 17.794 68.8574 17.794C68.148 17.794 67.5367 18.046 67.0234 18.55C66.5194 19.054 66.2674 19.74 66.2674 20.608C66.2674 21.476 66.524 22.1807 67.0374 22.722C67.5507 23.2633 68.162 23.534 68.8714 23.534C69.5807 23.534 70.1874 23.2727 70.6914 22.75ZM68.6334 24.626C67.588 24.626 66.7154 24.2527 66.0154 23.506C65.3154 22.75 64.9654 21.7887 64.9654 20.622C64.9654 19.446 65.3107 18.4987 66.0014 17.78C66.7014 17.052 67.5787 16.688 68.6334 16.688C69.2867 16.688 69.856 16.842 70.3414 17.15C70.836 17.458 71.2094 17.8593 71.4614 18.354V14.14H72.7494V24.5H71.4614V22.932C71.2094 23.436 70.836 23.8467 70.3414 24.164C69.856 24.472 69.2867 24.626 68.6334 24.626Z" fill="black"/>
</svg>
