<svg width="212" height="40" viewBox="0 0 212 40" fill="none" xmlns="http://www.w3.org/2000/svg">
<rect width="212" height="40" rx="8" fill="white"/>
<rect x="4" y="4" width="32" height="32" rx="6" fill="#047E9C"/>
<path d="M19 20H11C10.7348 20 10.4804 20.1054 10.2929 20.2929C10.1054 20.4804 10 20.7348 10 21V29C10 29.2652 10.1054 29.5196 10.2929 29.7071C10.4804 29.8946 10.7348 30 11 30H19C19.2652 30 19.5196 29.8946 19.7071 29.7071C19.8946 29.5196 20 29.2652 20 29V21C20 20.7348 19.8946 20.4804 19.7071 20.2929C19.5196 20.1054 19.2652 20 19 20ZM18 28H12V22H18V28ZM29.92 10.62C29.8185 10.3757 29.6243 10.1815 29.38 10.08C29.2598 10.0288 29.1307 10.0016 29 10H23C22.7348 10 22.4804 10.1054 22.2929 10.2929C22.1054 10.4804 22 10.7348 22 11C22 11.2652 22.1054 11.5196 22.2929 11.7071C22.4804 11.8946 22.7348 12 23 12H26.59L21.29 17.29C21.1963 17.383 21.1219 17.4936 21.0711 17.6154C21.0203 17.7373 20.9942 17.868 20.9942 18C20.9942 18.132 21.0203 18.2627 21.0711 18.3846C21.1219 18.5064 21.1963 18.617 21.29 18.71C21.383 18.8037 21.4936 18.8781 21.6154 18.9289C21.7373 18.9797 21.868 19.0058 22 19.0058C22.132 19.0058 22.2627 18.9797 22.3846 18.9289C22.5064 18.8781 22.617 18.8037 22.71 18.71L28 13.41V17C28 17.2652 28.1054 17.5196 28.2929 17.7071C28.4804 17.8946 28.7348 18 29 18C29.2652 18 29.5196 17.8946 29.7071 17.7071C29.8946 17.5196 30 17.2652 30 17V11C29.9984 10.8693 29.9712 10.7402 29.92 10.62Z" fill="white"/>
<path d="M48.616 15.82V14.798H55.014V15.82H52.452V24.5H51.178V15.82H48.616ZM58.2466 16.814V18.116C58.7039 17.164 59.4832 16.688 60.5846 16.688V18.018H60.2486C59.5952 18.018 59.0959 18.1907 58.7506 18.536C58.4146 18.872 58.2466 19.46 58.2466 20.3V24.5H56.9726V16.814H58.2466ZM67.6289 22.75C68.1422 22.2273 68.3989 21.532 68.3989 20.664C68.3989 19.796 68.1422 19.1007 67.6289 18.578C67.1249 18.0553 66.5135 17.794 65.7949 17.794C65.0855 17.794 64.4742 18.046 63.9609 18.55C63.4569 19.054 63.2049 19.74 63.2049 20.608C63.2049 21.476 63.4615 22.1807 63.9749 22.722C64.4882 23.2633 65.0995 23.534 65.8089 23.534C66.5182 23.534 67.1249 23.2727 67.6289 22.75ZM65.5709 24.626C64.5255 24.626 63.6529 24.2527 62.9529 23.506C62.2529 22.75 61.9029 21.7887 61.9029 20.622C61.9029 19.446 62.2482 18.4987 62.9389 17.78C63.6389 17.052 64.5162 16.688 65.5709 16.688C66.2242 16.688 66.7935 16.842 67.2789 17.15C67.7735 17.458 68.1469 17.8593 68.3989 18.354V16.814H69.6869V24.5H68.3989V22.932C68.1469 23.436 67.7735 23.8467 67.2789 24.164C66.7935 24.472 66.2242 24.626 65.5709 24.626ZM73.3398 16.814V18.06C73.8624 17.1453 74.6978 16.688 75.8458 16.688C76.6951 16.688 77.4044 16.9727 77.9738 17.542C78.5431 18.102 78.8278 18.9047 78.8278 19.95V24.5H77.5678V20.16C77.5678 19.3853 77.3811 18.7973 77.0078 18.396C76.6344 17.9947 76.1164 17.794 75.4538 17.794C74.8004 17.794 74.2824 17.9947 73.8998 18.396C73.5264 18.7973 73.3398 19.3853 73.3398 20.16V24.5H72.0658V16.814H73.3398ZM80.8568 18.984C80.8568 18.34 81.1228 17.7987 81.6548 17.36C82.1961 16.912 82.8915 16.688 83.7408 16.688C84.5995 16.688 85.2715 16.9073 85.7568 17.346C86.2421 17.7753 86.5081 18.368 86.5548 19.124H85.2388C85.2201 18.6947 85.0755 18.3493 84.8048 18.088C84.5341 17.8267 84.1561 17.696 83.6708 17.696C83.1948 17.696 82.8168 17.8127 82.5368 18.046C82.2661 18.27 82.1308 18.564 82.1308 18.928C82.1308 19.2827 82.2848 19.558 82.5928 19.754C82.9101 19.95 83.2881 20.0947 83.7268 20.188C84.1748 20.272 84.6181 20.3747 85.0568 20.496C85.5048 20.608 85.8828 20.8273 86.1908 21.154C86.5081 21.4713 86.6668 21.9287 86.6668 22.526C86.6668 23.114 86.3961 23.6133 85.8548 24.024C85.3228 24.4253 84.6275 24.626 83.7688 24.626C82.9101 24.626 82.2195 24.4113 81.6968 23.982C81.1835 23.5527 80.9035 22.96 80.8568 22.204H82.1728C82.1915 22.6333 82.3408 22.9787 82.6208 23.24C82.9101 23.492 83.3021 23.618 83.7968 23.618C84.3008 23.618 84.6928 23.5107 84.9728 23.296C85.2621 23.0813 85.4068 22.8107 85.4068 22.484C85.4068 22.148 85.2948 21.882 85.0708 21.686C84.8468 21.49 84.5668 21.3547 84.2308 21.28C83.8948 21.2053 83.5261 21.1167 83.1248 21.014C82.7328 20.9113 82.3688 20.804 82.0328 20.692C81.6968 20.5707 81.4168 20.3653 81.1928 20.076C80.9688 19.7867 80.8568 19.4227 80.8568 18.984ZM90.0459 15.33C89.8779 15.498 89.6726 15.582 89.4299 15.582C89.1873 15.582 88.9819 15.498 88.8139 15.33C88.6553 15.162 88.5759 14.9567 88.5759 14.714C88.5759 14.4713 88.6599 14.266 88.8279 14.098C88.9959 13.93 89.1966 13.846 89.4299 13.846C89.6726 13.846 89.8779 13.93 90.0459 14.098C90.2139 14.266 90.2979 14.4713 90.2979 14.714C90.2979 14.9567 90.2139 15.162 90.0459 15.33ZM88.7859 24.5V16.814H90.0599V24.5H88.7859ZM94.9629 23.464H96.0129V24.5H94.7249C93.3902 24.5 92.7229 23.842 92.7229 22.526V17.85H91.7289V16.814H92.7229V14.91H94.0109V16.814H95.9989V17.85H94.0109V22.526C94.0109 22.8713 94.0809 23.114 94.2209 23.254C94.3609 23.394 94.6082 23.464 94.9629 23.464ZM98.9595 15.33C98.7915 15.498 98.5861 15.582 98.3435 15.582C98.1008 15.582 97.8955 15.498 97.7275 15.33C97.5688 15.162 97.4895 14.9567 97.4895 14.714C97.4895 14.4713 97.5735 14.266 97.7415 14.098C97.9095 13.93 98.1101 13.846 98.3435 13.846C98.5861 13.846 98.7915 13.93 98.9595 14.098C99.1275 14.266 99.2115 14.4713 99.2115 14.714C99.2115 14.9567 99.1275 15.162 98.9595 15.33ZM97.6995 24.5V16.814H98.9735V24.5H97.6995ZM104.632 23.576C105.351 23.576 105.972 23.3193 106.494 22.806C107.026 22.2833 107.292 21.5647 107.292 20.65C107.292 19.7353 107.04 19.0213 106.536 18.508C106.032 17.9947 105.416 17.738 104.688 17.738C103.97 17.738 103.368 17.9947 102.882 18.508C102.397 19.0213 102.154 19.74 102.154 20.664C102.154 21.5787 102.388 22.2927 102.854 22.806C103.321 23.3193 103.914 23.576 104.632 23.576ZM101.902 23.534C101.202 22.806 100.852 21.8493 100.852 20.664C100.852 19.4787 101.221 18.522 101.958 17.794C102.696 17.0567 103.62 16.688 104.73 16.688C105.841 16.688 106.765 17.0567 107.502 17.794C108.24 18.522 108.608 19.4787 108.608 20.664C108.608 21.84 108.221 22.7967 107.446 23.534C106.681 24.262 105.743 24.626 104.632 24.626C103.522 24.626 102.612 24.262 101.902 23.534ZM111.756 16.814V18.06C112.279 17.1453 113.114 16.688 114.262 16.688C115.111 16.688 115.821 16.9727 116.39 17.542C116.959 18.102 117.244 18.9047 117.244 19.95V24.5H115.984V20.16C115.984 19.3853 115.797 18.7973 115.424 18.396C115.051 17.9947 114.533 17.794 113.87 17.794C113.217 17.794 112.699 17.9947 112.316 18.396C111.943 18.7973 111.756 19.3853 111.756 20.16V24.5H110.482V16.814H111.756Z" fill="black"/>
</svg>
