<svg width="212" height="40" viewBox="0 0 212 40" fill="none" xmlns="http://www.w3.org/2000/svg">
  <rect width="212" height="40" rx="8" fill="white"></rect>
  <rect x="4" y="4" width="32" height="32" rx="6" fill="#C2410C"></rect>
  <path d="M22.5 10L13 22h6l-1.5 8L27 18h-6l1.5-8z" fill="white" stroke="white" stroke-width="1.4" stroke-linejoin="round"></path>
  <path d="M48.645 20.765Q48.645 19.235 49.335 18.012Q50.025 16.790 51.218 16.100Q52.410 15.410 53.865 15.410L53.865 15.410Q55.575 15.410 56.850 16.235Q58.125 17.060 58.710 18.575L58.710 18.575L57.075 18.575Q56.640 17.630 55.822 17.120Q55.005 16.610 53.865 16.610L53.865 16.610Q52.770 16.610 51.900 17.120Q51.030 17.630 50.535 18.567Q50.040 19.505 50.040 20.765L50.040 20.765Q50.040 22.010 50.535 22.948Q51.030 23.885 51.900 24.395Q52.770 24.905 53.865 24.905L53.865 24.905Q55.005 24.905 55.822 24.402Q56.640 23.900 57.075 22.955L57.075 22.955L58.710 22.955Q58.125 24.455 56.850 25.273Q55.575 26.090 53.865 26.090L53.865 26.090Q52.410 26.090 51.218 25.407Q50.025 24.725 49.335 23.510Q48.645 22.295 48.645 20.765L48.645 20.765Z M60.325 21.860Q60.325 20.600 60.835 19.648Q61.345 18.695 62.237 18.170Q63.130 17.645 64.225 17.645L64.225 17.645Q65.305 17.645 66.100 18.110Q66.895 18.575 67.285 19.280L67.285 19.280L67.285 17.780L68.665 17.780L68.665 26L67.285 26L67.285 24.470Q66.880 25.190 66.078 25.663Q65.275 26.135 64.210 26.135L64.210 26.135Q63.115 26.135 62.230 25.595Q61.345 25.055 60.835 24.080Q60.325 23.105 60.325 21.860L60.325 21.860ZM67.285 21.875Q67.285 20.945 66.910 20.255Q66.535 19.565 65.897 19.198Q65.260 18.830 64.495 18.830L64.495 18.830Q63.730 18.830 63.100 19.190Q62.470 19.550 62.095 20.240Q61.720 20.930 61.720 21.860L61.720 21.860Q61.720 22.805 62.095 23.503Q62.470 24.200 63.100 24.567Q63.730 24.935 64.495 24.935L64.495 24.935Q65.260 24.935 65.897 24.567Q66.535 24.200 66.910 23.503Q67.285 22.805 67.285 21.875L67.285 21.875Z M77 17.780L78.365 17.780L78.365 26L77 26L77 24.785Q76.610 25.415 75.912 25.767Q75.215 26.120 74.375 26.120L74.375 26.120Q73.415 26.120 72.650 25.723Q71.885 25.325 71.442 24.530Q71 23.735 71 22.595L71 22.595L71 17.780L72.350 17.780L72.350 22.415Q72.350 23.630 72.965 24.282Q73.580 24.935 74.645 24.935L74.645 24.935Q75.740 24.935 76.370 24.260Q77 23.585 77 22.295L77 22.295L77 17.780Z M83.685 26.135Q82.740 26.135 81.990 25.813Q81.240 25.490 80.805 24.913Q80.370 24.335 80.325 23.585L80.325 23.585L81.735 23.585Q81.795 24.200 82.313 24.590Q82.830 24.980 83.670 24.980L83.670 24.980Q84.450 24.980 84.900 24.635Q85.350 24.290 85.350 23.765L85.350 23.765Q85.350 23.225 84.870 22.962Q84.390 22.700 83.385 22.445L83.385 22.445Q82.470 22.205 81.892 21.957Q81.315 21.710 80.903 21.223Q80.490 20.735 80.490 19.940L80.490 19.940Q80.490 19.310 80.865 18.785Q81.240 18.260 81.930 17.953Q82.620 17.645 83.505 17.645L83.505 17.645Q84.870 17.645 85.710 18.335Q86.550 19.025 86.610 20.225L86.610 20.225L85.245 20.225Q85.200 19.580 84.728 19.190Q84.255 18.800 83.460 18.800L83.460 18.800Q82.725 18.800 82.290 19.115Q81.855 19.430 81.855 19.940L81.855 19.940Q81.855 20.345 82.118 20.608Q82.380 20.870 82.778 21.027Q83.175 21.185 83.880 21.380L83.880 21.380Q84.765 21.620 85.320 21.852Q85.875 22.085 86.273 22.550Q86.670 23.015 86.685 23.765L86.685 23.765Q86.685 24.440 86.310 24.980Q85.935 25.520 85.252 25.828Q84.570 26.135 83.685 26.135L83.685 26.135Z M96.205 21.575Q96.205 21.965 96.160 22.400L96.160 22.400L89.590 22.400Q89.665 23.615 90.423 24.297Q91.180 24.980 92.260 24.980L92.260 24.980Q93.145 24.980 93.738 24.567Q94.330 24.155 94.570 23.465L94.570 23.465L96.040 23.465Q95.710 24.650 94.720 25.392Q93.730 26.135 92.260 26.135L92.260 26.135Q91.090 26.135 90.168 25.610Q89.245 25.085 88.720 24.117Q88.195 23.150 88.195 21.875L88.195 21.875Q88.195 20.600 88.705 19.640Q89.215 18.680 90.138 18.163Q91.060 17.645 92.260 17.645L92.260 17.645Q93.430 17.645 94.330 18.155Q95.230 18.665 95.718 19.558Q96.205 20.450 96.205 21.575L96.205 21.575ZM94.795 21.290Q94.795 20.510 94.450 19.947Q94.105 19.385 93.513 19.093Q92.920 18.800 92.200 18.800L92.200 18.800Q91.165 18.800 90.438 19.460Q89.710 20.120 89.605 21.290L89.605 21.290L94.795 21.290Z" fill="#000"></path>
</svg>