<svg width="212" height="40" viewBox="0 0 212 40" fill="none" xmlns="http://www.w3.org/2000/svg">
  <rect width="212" height="40" rx="8" fill="white"></rect>
  <rect x="4" y="4" width="32" height="32" rx="6" fill="#047857"></rect>
  <circle cx="20" cy="20" r="2.2" fill="white"></circle>
  <path d="M14.5 20a5.5 5.5 0 0 1 11 0" stroke="white" stroke-width="1.6" stroke-linecap="round" fill="none"></path>
  <path d="M11 20a9 9 0 0 1 18 0" stroke="white" stroke-width="1.6" stroke-linecap="round" fill="none" opacity="0.75"></path>
  <path d="M54.780 16.655L50.520 16.655L50.520 20.150L54.330 20.150L54.330 21.275L50.520 21.275L50.520 24.875L54.780 24.875L54.780 26L49.155 26L49.155 15.530L54.780 15.530L54.780 16.655Z M60.295 17.780L60.295 18.905L58.570 18.905L58.570 26L57.205 26L57.205 18.905L56.140 18.905L56.140 17.780L57.205 17.780L57.205 17.195Q57.205 15.815 57.918 15.178Q58.630 14.540 60.205 14.540L60.205 14.540L60.205 15.680Q59.305 15.680 58.938 16.032Q58.570 16.385 58.570 17.195L58.570 17.195L58.570 17.780L60.295 17.780Z M65.330 17.780L65.330 18.905L63.605 18.905L63.605 26L62.240 26L62.240 18.905L61.175 18.905L61.175 17.780L62.240 17.780L62.240 17.195Q62.240 15.815 62.953 15.178Q63.665 14.540 65.240 14.540L65.240 14.540L65.240 15.680Q64.340 15.680 63.972 16.032Q63.605 16.385 63.605 17.195L63.605 17.195L63.605 17.780L65.330 17.780Z M74.520 21.575Q74.520 21.965 74.475 22.400L74.475 22.400L67.905 22.400Q67.980 23.615 68.737 24.297Q69.495 24.980 70.575 24.980L70.575 24.980Q71.460 24.980 72.052 24.567Q72.645 24.155 72.885 23.465L72.885 23.465L74.355 23.465Q74.025 24.650 73.035 25.392Q72.045 26.135 70.575 26.135L70.575 26.135Q69.405 26.135 68.482 25.610Q67.560 25.085 67.035 24.117Q66.510 23.150 66.510 21.875L66.510 21.875Q66.510 20.600 67.020 19.640Q67.530 18.680 68.453 18.163Q69.375 17.645 70.575 17.645L70.575 17.645Q71.745 17.645 72.645 18.155Q73.545 18.665 74.032 19.558Q74.520 20.450 74.520 21.575L74.520 21.575ZM73.110 21.290Q73.110 20.510 72.765 19.947Q72.420 19.385 71.828 19.093Q71.235 18.800 70.515 18.800L70.515 18.800Q69.480 18.800 68.752 19.460Q68.025 20.120 67.920 21.290L67.920 21.290L73.110 21.290Z M75.910 21.875Q75.910 20.600 76.420 19.648Q76.930 18.695 77.837 18.170Q78.745 17.645 79.915 17.645L79.915 17.645Q81.430 17.645 82.412 18.380Q83.395 19.115 83.710 20.420L83.710 20.420L82.240 20.420Q82.030 19.670 81.422 19.235Q80.815 18.800 79.915 18.800L79.915 18.800Q78.745 18.800 78.025 19.602Q77.305 20.405 77.305 21.875L77.305 21.875Q77.305 23.360 78.025 24.170Q78.745 24.980 79.915 24.980L79.915 24.980Q80.815 24.980 81.415 24.560Q82.015 24.140 82.240 23.360L82.240 23.360L83.710 23.360Q83.380 24.620 82.390 25.378Q81.400 26.135 79.915 26.135L79.915 26.135Q78.745 26.135 77.837 25.610Q76.930 25.085 76.420 24.125Q75.910 23.165 75.910 21.875L75.910 21.875Z M89.435 18.905L87.290 18.905L87.290 23.750Q87.290 24.350 87.545 24.598Q87.800 24.845 88.430 24.845L88.430 24.845L89.435 24.845L89.435 26L88.205 26Q87.065 26 86.495 25.475Q85.925 24.950 85.925 23.750L85.925 23.750L85.925 18.905L84.860 18.905L84.860 17.780L85.925 17.780L85.925 15.710L87.290 15.710L87.290 17.780L89.435 17.780L89.435 18.905Z" fill="#000"></path>
</svg>