<svg width="212" height="40" viewBox="0 0 212 40" fill="none" xmlns="http://www.w3.org/2000/svg">
<rect width="212" height="40" rx="8" fill="white"/>
<rect x="4" y="4" width="32" height="32" rx="6" fill="#047E9C"/>
<path d="M19 20H11C10.7348 20 10.4804 20.1054 10.2929 20.2929C10.1054 20.4804 10 20.7348 10 21V29C10 29.2652 10.1054 29.5196 10.2929 29.7071C10.4804 29.8946 10.7348 30 11 30H19C19.2652 30 19.5196 29.8946 19.7071 29.7071C19.8946 29.5196 20 29.2652 20 29V21C20 20.7348 19.8946 20.4804 19.7071 20.2929C19.5196 20.1054 19.2652 20 19 20ZM18 28H12V22H18V28ZM29.92 10.62C29.8185 10.3757 29.6243 10.1815 29.38 10.08C29.2598 10.0288 29.1307 10.0016 29 10H23C22.7348 10 22.4804 10.1054 22.2929 10.2929C22.1054 10.4804 22 10.7348 22 11C22 11.2652 22.1054 11.5196 22.2929 11.7071C22.4804 11.8946 22.7348 12 23 12H26.59L21.29 17.29C21.1963 17.383 21.1219 17.4936 21.0711 17.6154C21.0203 17.7373 20.9942 17.868 20.9942 18C20.9942 18.132 21.0203 18.2627 21.0711 18.3846C21.1219 18.5064 21.1963 18.617 21.29 18.71C21.383 18.8037 21.4936 18.8781 21.6154 18.9289C21.7373 18.9797 21.868 19.0058 22 19.0058C22.132 19.0058 22.2627 18.9797 22.3846 18.9289C22.5064 18.8781 22.617 18.8037 22.71 18.71L28 13.41V17C28 17.2652 28.1054 17.5196 28.2929 17.7071C28.4804 17.8946 28.7348 18 29 18C29.2652 18 29.5196 17.8946 29.7071 17.7071C29.8946 17.5196 30 17.2652 30 17V11C29.9984 10.8693 29.9712 10.7402 29.92 10.62Z" fill="white"/>
<path d="M50.086 17.388C50.086 17.7427 50.184 18.0367 50.38 18.27C50.576 18.5033 50.828 18.676 51.136 18.788C51.444 18.9 51.7847 18.998 52.158 19.082C52.5407 19.166 52.9187 19.264 53.292 19.376C53.6747 19.4787 54.02 19.614 54.328 19.782C54.636 19.95 54.888 20.202 55.084 20.538C55.28 20.874 55.378 21.2893 55.378 21.784C55.378 22.54 55.0887 23.198 54.51 23.758C53.9313 24.318 53.1473 24.598 52.158 24.598C51.178 24.598 50.38 24.374 49.764 23.926C49.148 23.4687 48.84 22.8527 48.84 22.078H50.198C50.2353 22.5167 50.408 22.8713 50.716 23.142C51.0333 23.4127 51.5 23.548 52.116 23.548C52.732 23.548 53.222 23.3893 53.586 23.072C53.95 22.7547 54.132 22.386 54.132 21.966C54.132 21.5367 54.034 21.21 53.838 20.986C53.642 20.7527 53.39 20.58 53.082 20.468C52.774 20.356 52.4287 20.2627 52.046 20.188C51.6727 20.104 51.2947 20.006 50.912 19.894C50.5387 19.782 50.198 19.642 49.89 19.474C49.582 19.2967 49.33 19.04 49.134 18.704C48.938 18.3587 48.84 17.934 48.84 17.43C48.84 16.6087 49.1293 15.9507 49.708 15.456C50.296 14.952 51.0567 14.7 51.99 14.7C52.9327 14.7 53.6793 14.9193 54.23 15.358C54.79 15.7873 55.112 16.3847 55.196 17.15H53.782C53.7447 16.7673 53.5627 16.4407 53.236 16.17C52.9187 15.8993 52.4847 15.764 51.934 15.764C51.3927 15.764 50.9493 15.904 50.604 16.184C50.2587 16.4547 50.086 16.856 50.086 17.388ZM60.0668 23.464H61.1168V24.5H59.8288C58.4941 24.5 57.8268 23.842 57.8268 22.526V17.85H56.8328V16.814H57.8268V14.91H59.1148V16.814H61.1028V17.85H59.1148V22.526C59.1148 22.8713 59.1848 23.114 59.3248 23.254C59.4648 23.394 59.7121 23.464 60.0668 23.464ZM68.0254 22.75C68.5387 22.2273 68.7954 21.532 68.7954 20.664C68.7954 19.796 68.5387 19.1007 68.0254 18.578C67.5214 18.0553 66.91 17.794 66.1914 17.794C65.482 17.794 64.8707 18.046 64.3574 18.55C63.8534 19.054 63.6014 19.74 63.6014 20.608C63.6014 21.476 63.858 22.1807 64.3714 22.722C64.8847 23.2633 65.496 23.534 66.2054 23.534C66.9147 23.534 67.5214 23.2727 68.0254 22.75ZM65.9674 24.626C64.922 24.626 64.0494 24.2527 63.3494 23.506C62.6494 22.75 62.2994 21.7887 62.2994 20.622C62.2994 19.446 62.6447 18.4987 63.3354 17.78C64.0354 17.052 64.9127 16.688 65.9674 16.688C66.6207 16.688 67.19 16.842 67.6754 17.15C68.17 17.458 68.5434 17.8593 68.7954 18.354V16.814H70.0834V24.5H68.7954V22.932C68.5434 23.436 68.17 23.8467 67.6754 24.164C67.19 24.472 66.6207 24.626 65.9674 24.626ZM74.9823 23.464H76.0323V24.5H74.7443C73.4096 24.5 72.7423 23.842 72.7423 22.526V17.85H71.7483V16.814H72.7423V14.91H74.0303V16.814H76.0183V17.85H74.0303V22.526C74.0303 22.8713 74.1003 23.114 74.2403 23.254C74.3803 23.394 74.6276 23.464 74.9823 23.464ZM80.9388 24.626C79.8375 24.626 78.9415 24.262 78.2508 23.534C77.5602 22.806 77.2148 21.8447 77.2148 20.65C77.2148 19.4553 77.5648 18.4987 78.2648 17.78C78.9648 17.052 79.8702 16.688 80.9808 16.688C82.1008 16.688 82.9968 17.0333 83.6688 17.724C84.3502 18.4053 84.6908 19.278 84.6908 20.342C84.6908 20.6127 84.6722 20.8647 84.6348 21.098H78.5168C78.5542 21.8633 78.7922 22.47 79.2308 22.918C79.6788 23.3567 80.2482 23.576 80.9388 23.576C81.4615 23.576 81.9002 23.4593 82.2548 23.226C82.6188 22.9927 82.8848 22.6847 83.0528 22.302H84.4248C84.1822 22.974 83.7622 23.5293 83.1648 23.968C82.5768 24.4067 81.8348 24.626 80.9388 24.626ZM83.3608 20.174C83.3515 19.4367 83.1182 18.8487 82.6608 18.41C82.2035 17.962 81.6342 17.738 80.9528 17.738C80.2808 17.738 79.7208 17.9573 79.2728 18.396C78.8248 18.8253 78.5775 19.418 78.5308 20.174H83.3608Z" fill="black"/>
</svg>
