<svg width="212" height="40" viewBox="0 0 212 40" fill="none" xmlns="http://www.w3.org/2000/svg">
<rect width="212" height="40" rx="8" fill="white"/>
<rect x="4" y="4" width="32" height="32" rx="6" fill="#BA51C5"/>
<path d="M28 24.18V15.82C28.4797 15.6529 28.9091 15.3668 29.2479 14.9884C29.5868 14.61 29.824 14.1517 29.9374 13.6566C30.0507 13.1615 30.0365 12.6457 29.8961 12.1575C29.7556 11.6694 29.4935 11.2249 29.1343 10.8657C28.7752 10.5066 28.3307 10.2445 27.8426 10.104C27.3544 9.96358 26.8386 9.94937 26.3435 10.0627C25.8484 10.1761 25.3901 10.4133 25.0117 10.7522C24.6333 11.091 24.3472 11.5204 24.18 12H15.82C15.6529 11.5204 15.3668 11.091 14.9884 10.7522C14.61 10.4133 14.1517 10.1761 13.6566 10.0627C13.1615 9.94937 12.6457 9.96358 12.1575 10.104C11.6694 10.2445 11.2249 10.5066 10.8657 10.8657C10.5066 11.2249 10.2445 11.6694 10.104 12.1575C9.96358 12.6457 9.94937 13.1615 10.0627 13.6566C10.1761 14.1517 10.4133 14.61 10.7522 14.9884C11.091 15.3668 11.5204 15.6529 12 15.82V24.18C11.5204 24.3472 11.091 24.6333 10.7522 25.0117C10.4133 25.3901 10.1761 25.8484 10.0627 26.3435C9.94937 26.8386 9.96358 27.3544 10.104 27.8426C10.2445 28.3307 10.5066 28.7752 10.8657 29.1343C11.2249 29.4935 11.6694 29.7556 12.1575 29.8961C12.6457 30.0365 13.1615 30.0507 13.6566 29.9374C14.1517 29.824 14.61 29.5868 14.9884 29.2479C15.3668 28.9091 15.6529 28.4797 15.82 28H24.18C24.3472 28.4797 24.6333 28.9091 25.0117 29.2479C25.3901 29.5868 25.8484 29.824 26.3435 29.9374C26.8386 30.0507 27.3544 30.0365 27.8426 29.8961C28.3307 29.7556 28.7752 29.4935 29.1343 29.1343C29.4935 28.7752 29.7556 28.3307 29.8961 27.8426C30.0365 27.3544 30.0507 26.8386 29.9374 26.3435C29.824 25.8484 29.5868 25.3901 29.2479 25.0117C28.9091 24.6333 28.4797 24.3472 28 24.18V24.18ZM27 12C27.1978 12 27.3912 12.0587 27.5556 12.1686C27.7201 12.2785 27.8482 12.4346 27.9239 12.6174C27.9996 12.8001 28.0194 13.0012 27.9808 13.1951C27.9422 13.3891 27.847 13.5673 27.7072 13.7072C27.5673 13.847 27.3891 13.9422 27.1951 13.9808C27.0012 14.0194 26.8001 13.9996 26.6174 13.9239C26.4346 13.8482 26.2785 13.7201 26.1686 13.5556C26.0587 13.3912 26 13.1978 26 13C26 12.7348 26.1054 12.4805 26.2929 12.2929C26.4805 12.1054 26.7348 12 27 12V12ZM13 12C13.1978 12 13.3912 12.0587 13.5556 12.1686C13.7201 12.2785 13.8482 12.4346 13.9239 12.6174C13.9996 12.8001 14.0194 13.0012 13.9808 13.1951C13.9422 13.3891 13.847 13.5673 13.7072 13.7072C13.5673 13.847 13.3891 13.9422 13.1951 13.9808C13.0012 14.0194 12.8001 13.9996 12.6174 13.9239C12.4346 13.8482 12.2785 13.7201 12.1686 13.5556C12.0587 13.3912 12 13.1978 12 13C12 12.7348 12.1054 12.4805 12.2929 12.2929C12.4805 12.1054 12.7348 12 13 12V12ZM13 28C12.8023 28 12.6089 27.9414 12.4445 27.8315C12.28 27.7216 12.1519 27.5655 12.0762 27.3827C12.0005 27.2 11.9807 26.9989 12.0193 26.805C12.0578 26.611 12.1531 26.4328 12.2929 26.2929C12.4328 26.1531 12.611 26.0578 12.805 26.0193C12.9989 25.9807 13.2 26.0005 13.3827 26.0762C13.5655 26.1519 13.7216 26.28 13.8315 26.4445C13.9414 26.6089 14 26.8023 14 27C14 27.2653 13.8947 27.5196 13.7072 27.7072C13.5196 27.8947 13.2653 28 13 28ZM24.18 26H15.82C15.6707 25.5806 15.4299 25.1997 15.1151 24.8849C14.8004 24.5702 14.4194 24.3294 14 24.18V15.82C14.4194 15.6707 14.8004 15.4299 15.1151 15.1151C15.4299 14.8004 15.6707 14.4194 15.82 14H24.18C24.3294 14.4194 24.5702 14.8004 24.8849 15.1151C25.1997 15.4299 25.5806 15.6707 26 15.82V24.18C25.5806 24.3294 25.1997 24.5702 24.8849 24.8849C24.5702 25.1997 24.3294 25.5806 24.18 26V26ZM27 28C26.8023 28 26.6089 27.9414 26.4445 27.8315C26.28 27.7216 26.1519 27.5655 26.0762 27.3827C26.0005 27.2 25.9807 26.9989 26.0193 26.805C26.0578 26.611 26.1531 26.4328 26.2929 26.2929C26.4328 26.1531 26.611 26.0578 26.805 26.0193C26.9989 25.9807 27.2 26.0005 27.3827 26.0762C27.5655 26.1519 27.7216 26.28 27.8315 26.4445C27.9414 26.6089 28 26.8023 28 27C28 27.2653 27.8947 27.5196 27.7072 27.7072C27.5196 27.8947 27.2653 28 27 28Z" fill="white"/>
<path d="M50.086 17.388C50.086 17.7427 50.184 18.0367 50.38 18.27C50.576 18.5033 50.828 18.676 51.136 18.788C51.444 18.9 51.7847 18.998 52.158 19.082C52.5407 19.166 52.9187 19.264 53.292 19.376C53.6747 19.4787 54.02 19.614 54.328 19.782C54.636 19.95 54.888 20.202 55.084 20.538C55.28 20.874 55.378 21.2893 55.378 21.784C55.378 22.54 55.0887 23.198 54.51 23.758C53.9313 24.318 53.1473 24.598 52.158 24.598C51.178 24.598 50.38 24.374 49.764 23.926C49.148 23.4687 48.84 22.8527 48.84 22.078H50.198C50.2353 22.5167 50.408 22.8713 50.716 23.142C51.0333 23.4127 51.5 23.548 52.116 23.548C52.732 23.548 53.222 23.3893 53.586 23.072C53.95 22.7547 54.132 22.386 54.132 21.966C54.132 21.5367 54.034 21.21 53.838 20.986C53.642 20.7527 53.39 20.58 53.082 20.468C52.774 20.356 52.4287 20.2627 52.046 20.188C51.6727 20.104 51.2947 20.006 50.912 19.894C50.5387 19.782 50.198 19.642 49.89 19.474C49.582 19.2967 49.33 19.04 49.134 18.704C48.938 18.3587 48.84 17.934 48.84 17.43C48.84 16.6087 49.1293 15.9507 49.708 15.456C50.296 14.952 51.0567 14.7 51.99 14.7C52.9327 14.7 53.6793 14.9193 54.23 15.358C54.79 15.7873 55.112 16.3847 55.196 17.15H53.782C53.7447 16.7673 53.5627 16.4407 53.236 16.17C52.9187 15.8993 52.4847 15.764 51.934 15.764C51.3927 15.764 50.9493 15.904 50.604 16.184C50.2587 16.4547 50.086 16.856 50.086 17.388ZM60.0668 23.464H61.1168V24.5H59.8288C58.4941 24.5 57.8268 23.842 57.8268 22.526V17.85H56.8328V16.814H57.8268V14.91H59.1148V16.814H61.1028V17.85H59.1148V22.526C59.1148 22.8713 59.1848 23.114 59.3248 23.254C59.4648 23.394 59.7121 23.464 60.0668 23.464ZM68.0254 22.75C68.5387 22.2273 68.7954 21.532 68.7954 20.664C68.7954 19.796 68.5387 19.1007 68.0254 18.578C67.5214 18.0553 66.91 17.794 66.1914 17.794C65.482 17.794 64.8707 18.046 64.3574 18.55C63.8534 19.054 63.6014 19.74 63.6014 20.608C63.6014 21.476 63.858 22.1807 64.3714 22.722C64.8847 23.2633 65.496 23.534 66.2054 23.534C66.9147 23.534 67.5214 23.2727 68.0254 22.75ZM65.9674 24.626C64.922 24.626 64.0494 24.2527 63.3494 23.506C62.6494 22.75 62.2994 21.7887 62.2994 20.622C62.2994 19.446 62.6447 18.4987 63.3354 17.78C64.0354 17.052 64.9127 16.688 65.9674 16.688C66.6207 16.688 67.19 16.842 67.6754 17.15C68.17 17.458 68.5434 17.8593 68.7954 18.354V16.814H70.0834V24.5H68.7954V22.932C68.5434 23.436 68.17 23.8467 67.6754 24.164C67.19 24.472 66.6207 24.626 65.9674 24.626ZM74.9823 23.464H76.0323V24.5H74.7443C73.4096 24.5 72.7423 23.842 72.7423 22.526V17.85H71.7483V16.814H72.7423V14.91H74.0303V16.814H76.0183V17.85H74.0303V22.526C74.0303 22.8713 74.1003 23.114 74.2403 23.254C74.3803 23.394 74.6276 23.464 74.9823 23.464ZM80.9388 24.626C79.8375 24.626 78.9415 24.262 78.2508 23.534C77.5602 22.806 77.2148 21.8447 77.2148 20.65C77.2148 19.4553 77.5648 18.4987 78.2648 17.78C78.9648 17.052 79.8702 16.688 80.9808 16.688C82.1008 16.688 82.9968 17.0333 83.6688 17.724C84.3502 18.4053 84.6908 19.278 84.6908 20.342C84.6908 20.6127 84.6722 20.8647 84.6348 21.098H78.5168C78.5542 21.8633 78.7922 22.47 79.2308 22.918C79.6788 23.3567 80.2482 23.576 80.9388 23.576C81.4615 23.576 81.9002 23.4593 82.2548 23.226C82.6188 22.9927 82.8848 22.6847 83.0528 22.302H84.4248C84.1822 22.974 83.7622 23.5293 83.1648 23.968C82.5768 24.4067 81.8348 24.626 80.9388 24.626ZM83.3608 20.174C83.3515 19.4367 83.1182 18.8487 82.6608 18.41C82.2035 17.962 81.6342 17.738 80.9528 17.738C80.2808 17.738 79.7208 17.9573 79.2728 18.396C78.8248 18.8253 78.5775 19.418 78.5308 20.174H83.3608Z" fill="black"/>
</svg>
