<svg width="212" height="40" viewBox="0 0 212 40" fill="none" xmlns="http://www.w3.org/2000/svg">
<rect width="212" height="40" rx="8" fill="white"/>
<rect x="4" y="4" width="32" height="32" rx="6" fill="#15A34A"/>
<path d="M27.8701 16.6C27.7956 16.4287 27.6746 16.2817 27.5209 16.1757C27.3671 16.0696 27.1867 16.0088 27.0001 16H22.4201L23.6901 11.26C23.7306 11.1117 23.7363 10.956 23.7068 10.8051C23.6773 10.6542 23.6134 10.5122 23.5201 10.39C23.427 10.269 23.3073 10.1709 23.1704 10.1033C23.0334 10.0357 22.8828 10.0003 22.7301 9.99998H15.7301C15.5044 9.99224 15.2826 10.0612 15.101 10.1955C14.9195 10.3299 14.7887 10.5218 14.7301 10.74L12.0501 20.74C12.0097 20.8883 12.004 21.044 12.0335 21.1948C12.0629 21.3457 12.1268 21.4878 12.2201 21.61C12.3143 21.7323 12.4355 21.8312 12.5743 21.8989C12.7131 21.9665 12.8657 22.0011 13.0201 22H16.8901L15.0801 28.74C15.0208 28.9573 15.0366 29.1883 15.125 29.3955C15.2134 29.6028 15.3692 29.7741 15.5671 29.8817C15.765 29.9893 15.9934 30.027 16.2154 29.9886C16.4374 29.9501 16.6399 29.8379 16.7901 29.67L27.6901 17.67C27.8199 17.5279 27.9059 17.3513 27.9379 17.1615C27.9698 16.9717 27.9463 16.7767 27.8701 16.6ZM18.0801 25.28L19.1501 21.28C19.1906 21.1317 19.1963 20.976 19.1668 20.8251C19.1373 20.6742 19.0734 20.5322 18.9801 20.41C18.887 20.289 18.7673 20.1909 18.6304 20.1233C18.4934 20.0557 18.3428 20.0203 18.1901 20.02H14.3501L16.4901 12H21.4201L20.1501 16.74C20.1093 16.891 20.1046 17.0495 20.1362 17.2028C20.1679 17.356 20.235 17.4997 20.3323 17.6222C20.4295 17.7448 20.5542 17.8428 20.6963 17.9084C20.8383 17.974 20.9938 18.0054 21.1501 18H24.7201L18.0801 25.28Z" fill="white"/>
<path d="M50.086 17.388C50.086 17.7427 50.184 18.0367 50.38 18.27C50.576 18.5033 50.828 18.676 51.136 18.788C51.444 18.9 51.7847 18.998 52.158 19.082C52.5407 19.166 52.9187 19.264 53.292 19.376C53.6747 19.4787 54.02 19.614 54.328 19.782C54.636 19.95 54.888 20.202 55.084 20.538C55.28 20.874 55.378 21.2893 55.378 21.784C55.378 22.54 55.0887 23.198 54.51 23.758C53.9313 24.318 53.1473 24.598 52.158 24.598C51.178 24.598 50.38 24.374 49.764 23.926C49.148 23.4687 48.84 22.8527 48.84 22.078H50.198C50.2353 22.5167 50.408 22.8713 50.716 23.142C51.0333 23.4127 51.5 23.548 52.116 23.548C52.732 23.548 53.222 23.3893 53.586 23.072C53.95 22.7547 54.132 22.386 54.132 21.966C54.132 21.5367 54.034 21.21 53.838 20.986C53.642 20.7527 53.39 20.58 53.082 20.468C52.774 20.356 52.4287 20.2627 52.046 20.188C51.6727 20.104 51.2947 20.006 50.912 19.894C50.5387 19.782 50.198 19.642 49.89 19.474C49.582 19.2967 49.33 19.04 49.134 18.704C48.938 18.3587 48.84 17.934 48.84 17.43C48.84 16.6087 49.1293 15.9507 49.708 15.456C50.296 14.952 51.0567 14.7 51.99 14.7C52.9327 14.7 53.6793 14.9193 54.23 15.358C54.79 15.7873 55.112 16.3847 55.196 17.15H53.782C53.7447 16.7673 53.5627 16.4407 53.236 16.17C52.9187 15.8993 52.4847 15.764 51.934 15.764C51.3927 15.764 50.9493 15.904 50.604 16.184C50.2587 16.4547 50.086 16.856 50.086 17.388ZM60.0668 23.464H61.1168V24.5H59.8288C58.4941 24.5 57.8268 23.842 57.8268 22.526V17.85H56.8328V16.814H57.8268V14.91H59.1148V16.814H61.1028V17.85H59.1148V22.526C59.1148 22.8713 59.1848 23.114 59.3248 23.254C59.4648 23.394 59.7121 23.464 60.0668 23.464ZM68.0254 22.75C68.5387 22.2273 68.7954 21.532 68.7954 20.664C68.7954 19.796 68.5387 19.1007 68.0254 18.578C67.5214 18.0553 66.91 17.794 66.1914 17.794C65.482 17.794 64.8707 18.046 64.3574 18.55C63.8534 19.054 63.6014 19.74 63.6014 20.608C63.6014 21.476 63.858 22.1807 64.3714 22.722C64.8847 23.2633 65.496 23.534 66.2054 23.534C66.9147 23.534 67.5214 23.2727 68.0254 22.75ZM65.9674 24.626C64.922 24.626 64.0494 24.2527 63.3494 23.506C62.6494 22.75 62.2994 21.7887 62.2994 20.622C62.2994 19.446 62.6447 18.4987 63.3354 17.78C64.0354 17.052 64.9127 16.688 65.9674 16.688C66.6207 16.688 67.19 16.842 67.6754 17.15C68.17 17.458 68.5434 17.8593 68.7954 18.354V16.814H70.0834V24.5H68.7954V22.932C68.5434 23.436 68.17 23.8467 67.6754 24.164C67.19 24.472 66.6207 24.626 65.9674 24.626ZM73.7363 16.814V18.116C74.1936 17.164 74.9729 16.688 76.0743 16.688V18.018H75.7383C75.0849 18.018 74.5856 18.1907 74.2403 18.536C73.9043 18.872 73.7363 19.46 73.7363 20.3V24.5H72.4623V16.814H73.7363ZM80.4166 23.464H81.4666V24.5H80.1786C78.8439 24.5 78.1766 23.842 78.1766 22.526V17.85H77.1826V16.814H78.1766V14.91H79.4646V16.814H81.4526V17.85H79.4646V22.526C79.4646 22.8713 79.5346 23.114 79.6746 23.254C79.8146 23.394 80.0619 23.464 80.4166 23.464Z" fill="black"/>
</svg>