<svg width="212" height="40" viewBox="0 0 212 40" fill="none" xmlns="http://www.w3.org/2000/svg">
<rect width="212" height="40" rx="8" fill="white"/>
<rect x="4" y="4" width="32" height="32" rx="6" fill="#BA51C5"/>
<path d="M28 24.18V15.82C28.4797 15.6529 28.9091 15.3668 29.2479 14.9884C29.5868 14.61 29.824 14.1517 29.9374 13.6566C30.0507 13.1615 30.0365 12.6457 29.8961 12.1575C29.7556 11.6694 29.4935 11.2249 29.1343 10.8657C28.7752 10.5066 28.3307 10.2445 27.8426 10.104C27.3544 9.96358 26.8386 9.94937 26.3435 10.0627C25.8484 10.1761 25.3901 10.4133 25.0117 10.7522C24.6333 11.091 24.3472 11.5204 24.18 12H15.82C15.6529 11.5204 15.3668 11.091 14.9884 10.7522C14.61 10.4133 14.1517 10.1761 13.6566 10.0627C13.1615 9.94937 12.6457 9.96358 12.1575 10.104C11.6694 10.2445 11.2249 10.5066 10.8657 10.8657C10.5066 11.2249 10.2445 11.6694 10.104 12.1575C9.96358 12.6457 9.94937 13.1615 10.0627 13.6566C10.1761 14.1517 10.4133 14.61 10.7522 14.9884C11.091 15.3668 11.5204 15.6529 12 15.82V24.18C11.5204 24.3472 11.091 24.6333 10.7522 25.0117C10.4133 25.3901 10.1761 25.8484 10.0627 26.3435C9.94937 26.8386 9.96358 27.3544 10.104 27.8426C10.2445 28.3307 10.5066 28.7752 10.8657 29.1343C11.2249 29.4935 11.6694 29.7556 12.1575 29.8961C12.6457 30.0365 13.1615 30.0507 13.6566 29.9374C14.1517 29.824 14.61 29.5868 14.9884 29.2479C15.3668 28.9091 15.6529 28.4797 15.82 28H24.18C24.3472 28.4797 24.6333 28.9091 25.0117 29.2479C25.3901 29.5868 25.8484 29.824 26.3435 29.9374C26.8386 30.0507 27.3544 30.0365 27.8426 29.8961C28.3307 29.7556 28.7752 29.4935 29.1343 29.1343C29.4935 28.7752 29.7556 28.3307 29.8961 27.8426C30.0365 27.3544 30.0507 26.8386 29.9374 26.3435C29.824 25.8484 29.5868 25.3901 29.2479 25.0117C28.9091 24.6333 28.4797 24.3472 28 24.18ZM27 12C27.1978 12 27.3912 12.0587 27.5556 12.1686C27.7201 12.2785 27.8482 12.4346 27.9239 12.6174C27.9996 12.8001 28.0194 13.0012 27.9808 13.1951C27.9422 13.3891 27.847 13.5673 27.7072 13.7072C27.5673 13.847 27.3891 13.9422 27.1951 13.9808C27.0012 14.0194 26.8001 13.9996 26.6174 13.9239C26.4346 13.8482 26.2785 13.7201 26.1686 13.5556C26.0587 13.3912 26 13.1978 26 13C26 12.7348 26.1054 12.4805 26.2929 12.2929C26.4805 12.1054 26.7348 12 27 12ZM13 12C13.1978 12 13.3912 12.0587 13.5556 12.1686C13.7201 12.2785 13.8482 12.4346 13.9239 12.6174C13.9996 12.8001 14.0194 13.0012 13.9808 13.1951C13.9422 13.3891 13.847 13.5673 13.7072 13.7072C13.5673 13.847 13.3891 13.9422 13.1951 13.9808C13.0012 14.0194 12.8001 13.9996 12.6174 13.9239C12.4346 13.8482 12.2785 13.7201 12.1686 13.5556C12.0587 13.3912 12 13.1978 12 13C12 12.7348 12.1054 12.4805 12.2929 12.2929C12.4805 12.1054 12.7348 12 13 12ZM13 28C12.8023 28 12.6089 27.9414 12.4445 27.8315C12.28 27.7216 12.1519 27.5655 12.0762 27.3827C12.0005 27.2 11.9807 26.9989 12.0193 26.805C12.0578 26.611 12.1531 26.4328 12.2929 26.2929C12.4328 26.1531 12.611 26.0578 12.805 26.0193C12.9989 25.9807 13.2 26.0005 13.3827 26.0762C13.5655 26.1519 13.7216 26.28 13.8315 26.4445C13.9414 26.6089 14 26.8023 14 27C14 27.2653 13.8947 27.5196 13.7072 27.7072C13.5196 27.8947 13.2653 28 13 28ZM24.18 26H15.82C15.6707 25.5806 15.4299 25.1997 15.1151 24.8849C14.8004 24.5702 14.4194 24.3294 14 24.18V15.82C14.4194 15.6707 14.8004 15.4299 15.1151 15.1151C15.4299 14.8004 15.6707 14.4194 15.82 14H24.18C24.3294 14.4194 24.5702 14.8004 24.8849 15.1151C25.1997 15.4299 25.5806 15.6707 26 15.82V24.18C25.5806 24.3294 25.1997 24.5702 24.8849 24.8849C24.5702 25.1997 24.3294 25.5806 24.18 26ZM27 28C26.8023 28 26.6089 27.9414 26.4445 27.8315C26.28 27.7216 26.1519 27.5655 26.0762 27.3827C26.0005 27.2 25.9807 26.9989 26.0193 26.805C26.0578 26.611 26.1531 26.4328 26.2929 26.2929C26.4328 26.1531 26.611 26.0578 26.805 26.0193C26.9989 25.9807 27.2 26.0005 27.3827 26.0762C27.5655 26.1519 27.7216 26.28 27.8315 26.4445C27.9414 26.6089 28 26.8023 28 27C28 27.2653 27.8947 27.5196 27.7072 27.7072C27.5196 27.8947 27.2653 28 27 28Z" fill="white"/>
<path d="M55.448 14.798H56.722V24.5H55.448L50.324 16.8V24.5H49.05V14.798H50.324L55.448 22.498V14.798ZM62.3814 23.576C63.1001 23.576 63.7207 23.3193 64.2434 22.806C64.7754 22.2833 65.0414 21.5647 65.0414 20.65C65.0414 19.7353 64.7894 19.0213 64.2854 18.508C63.7814 17.9947 63.1654 17.738 62.4374 17.738C61.7187 17.738 61.1167 17.9947 60.6314 18.508C60.1461 19.0213 59.9034 19.74 59.9034 20.664C59.9034 21.5787 60.1367 22.2927 60.6034 22.806C61.0701 23.3193 61.6627 23.576 62.3814 23.576ZM59.6514 23.534C58.9514 22.806 58.6014 21.8493 58.6014 20.664C58.6014 19.4787 58.9701 18.522 59.7074 17.794C60.4447 17.0567 61.3687 16.688 62.4794 16.688C63.5901 16.688 64.5141 17.0567 65.2514 17.794C65.9887 18.522 66.3574 19.4787 66.3574 20.664C66.3574 21.84 65.9701 22.7967 65.1954 23.534C64.4301 24.262 63.4921 24.626 62.3814 24.626C61.2707 24.626 60.3607 24.262 59.6514 23.534ZM73.4531 22.75C73.9664 22.2273 74.2231 21.532 74.2231 20.664C74.2231 19.796 73.9664 19.1007 73.4531 18.578C72.9491 18.0553 72.3378 17.794 71.6191 17.794C70.9098 17.794 70.2984 18.046 69.7851 18.55C69.2811 19.054 69.0291 19.74 69.0291 20.608C69.0291 21.476 69.2858 22.1807 69.7991 22.722C70.3124 23.2633 70.9238 23.534 71.6331 23.534C72.3424 23.534 72.9491 23.2727 73.4531 22.75ZM71.3951 24.626C70.3498 24.626 69.4771 24.2527 68.7771 23.506C68.0771 22.75 67.7271 21.7887 67.7271 20.622C67.7271 19.446 68.0724 18.4987 68.7631 17.78C69.4631 17.052 70.3404 16.688 71.3951 16.688C72.0484 16.688 72.6178 16.842 73.1031 17.15C73.5978 17.458 73.9711 17.8593 74.2231 18.354V14.14H75.5111V24.5H74.2231V22.932C73.9711 23.436 73.5978 23.8467 73.1031 24.164C72.6178 24.472 72.0484 24.626 71.3951 24.626ZM81.11 24.626C80.0087 24.626 79.1127 24.262 78.422 23.534C77.7313 22.806 77.386 21.8447 77.386 20.65C77.386 19.4553 77.736 18.4987 78.436 17.78C79.136 17.052 80.0413 16.688 81.152 16.688C82.272 16.688 83.168 17.0333 83.84 17.724C84.5213 18.4053 84.862 19.278 84.862 20.342C84.862 20.6127 84.8433 20.8647 84.806 21.098H78.688C78.7253 21.8633 78.9633 22.47 79.402 22.918C79.85 23.3567 80.4193 23.576 81.11 23.576C81.6327 23.576 82.0713 23.4593 82.426 23.226C82.79 22.9927 83.056 22.6847 83.224 22.302H84.596C84.3533 22.974 83.9333 23.5293 83.336 23.968C82.748 24.4067 82.006 24.626 81.11 24.626ZM83.532 20.174C83.5227 19.4367 83.2893 18.8487 82.832 18.41C82.3747 17.962 81.8053 17.738 81.124 17.738C80.452 17.738 79.892 17.9573 79.444 18.396C78.996 18.8253 78.7487 19.418 78.702 20.174H83.532Z" fill="black"/>
</svg>